<?xml version="1.0" encoding="UTF-8" standalone="no"?>
<!-- Created with Inkscape (http://www.inkscape.org/) -->

<svg
   width="750mm"
   height="297mm"
   viewBox="0 0 750 297"
   version="1.1"
   id="svg1"
   inkscape:version="1.3.2 (091e20e, 2023-11-25, custom)"
   sodipodi:docname="Atelier Rosso SignBoard.svg"
   xmlns:inkscape="http://www.inkscape.org/namespaces/inkscape"
   xmlns:sodipodi="http://sodipodi.sourceforge.net/DTD/sodipodi-0.dtd"
   xmlns="http://www.w3.org/2000/svg"
   xmlns:svg="http://www.w3.org/2000/svg">
  <sodipodi:namedview
     id="namedview1"
     pagecolor="#ffffff"
     bordercolor="#000000"
     borderopacity="0.25"
     inkscape:showpageshadow="2"
     inkscape:pageopacity="0.0"
     inkscape:pagecheckerboard="0"
     inkscape:deskcolor="#d1d1d1"
     inkscape:document-units="mm"
     inkscape:zoom="0.36569515"
     inkscape:cx="1505.3522"
     inkscape:cy="408.81045"
     inkscape:window-width="1920"
     inkscape:window-height="1017"
     inkscape:window-x="1432"
     inkscape:window-y="1020"
     inkscape:window-maximized="1"
     inkscape:current-layer="g64" />
  <defs
     id="defs1" />
  <g
     inkscape:label="Design 2 copy"
     inkscape:groupmode="layer"
     id="g64"
     style="display:inline">
    <path
       style="fill:#824707;stroke-width:1.125"
       d="m 371.3928,216.00538 c -9.56543,-0.52145 -19.79573,-3.44488 -28.23581,-8.06875 -14.09979,-7.72449 -24.74886,-19.74074 -30.65185,-34.58709 -2.38005,-5.98595 -3.86689,-12.26133 -4.46505,-18.84515 -0.22467,-2.47305 -0.25565,-9.00757 -0.0541,-11.4099 1.44528,-17.22519 9.12817,-32.90278 21.78128,-44.446597 3.19637,-2.916144 5.03975,-4.359471 8.40534,-6.581191 9.21593,-6.083705 19.04702,-9.584527 30.42221,-10.833263 2.3582,-0.258876 8.86843,-0.36252 11.2856,-0.179668 6.3164,0.477817 11.34356,1.469368 16.93221,3.339685 11.42643,3.82401 21.51833,10.551763 29.47435,19.649044 8.77376,10.0323 14.42862,22.53043 16.11585,35.61864 0.44026,3.41518 0.51648,5.10153 0.45198,10.00126 -0.0656,4.98766 -0.19593,6.56896 -0.85527,10.38029 -2.86432,16.55732 -11.84553,31.48762 -25.18441,41.86637 -10.0625,7.82945 -21.80291,12.51079 -34.81619,13.8825 -1.61509,0.17024 -8.76228,0.31432 -10.60615,0.21382 z m 10.4775,-1.1319 c 18.97968,-1.80853 36.23045,-11.71036 47.57744,-27.30913 6.33361,-8.70686 10.56853,-19.29135 12.0047,-30.00375 0.54621,-4.07424 0.73884,-9.17786 0.49433,-13.09689 -0.90484,-14.50282 -6.30646,-27.94826 -15.71299,-39.11202 -1.47447,-1.74992 -5.49342,-5.802275 -7.2755,-7.335973 -9.7637,-8.402837 -21.61979,-13.77735 -34.34954,-15.571063 -4.05291,-0.571084 -10.26394,-0.763009 -14.16844,-0.437814 -11.89977,0.991095 -22.22157,4.519756 -31.90875,10.908469 -3.73676,2.464393 -6.72977,4.927586 -10.18598,8.382831 -5.76981,5.76819 -9.5148,11.01532 -13.02253,18.24596 -3.54093,7.29903 -5.57412,14.62946 -6.39993,23.07413 -0.20844,2.13152 -0.20894,9.39011 -8e-4,11.6086 0.80251,8.55323 2.81707,15.84977 6.44342,23.3375 4.79321,9.89704 11.78121,18.2719 20.72504,24.83824 6.02833,4.42584 13.61747,8.1442 20.85741,10.21931 7.90409,2.26544 16.56508,3.04792 24.92212,2.2516 z m -2.43673,-15.79002 c -0.5395,-0.27216 -0.87693,-0.8673 -0.86693,-1.529 0.0125,-0.82293 0.34449,-1.34962 1.22007,-1.9352 0.42564,-0.28467 0.81675,-0.59276 0.86911,-0.68462 0.0914,-0.16014 0.44057,-0.23914 0.44057,-0.0997 0,0.24375 -0.35022,0.58894 -1.06982,1.05444 -0.83997,0.54337 -1.0175,0.80866 -0.93433,1.39617 0.0252,0.17775 0.1918,0.35865 0.45634,0.49536 0.64383,0.33273 1.39875,0.19704 2.73844,-0.49226 0.62211,-0.32009 1.53293,-0.73148 2.02406,-0.91421 1.0208,-0.37977 1.71891,-0.81045 2.05959,-1.27057 0.28557,-0.38571 0.41536,-1.44915 0.20744,-1.69968 -0.1568,-0.18894 -0.059,-0.47007 0.12416,-0.35688 0.23364,0.1444 0.58401,1.01196 0.65597,1.62429 0.15215,1.29449 -0.36732,1.85582 -2.4004,2.59383 -0.77292,0.28056 -1.61669,0.69264 -2.11398,1.03243 -1.38017,0.94303 -2.55957,1.2147 -3.41029,0.78556 z m 1.8419,-0.33354 c 0.29954,-0.1017 0.95774,-0.46428 1.46268,-0.80576 0.55556,-0.37568 1.31772,-0.75552 1.93012,-0.96189 1.7764,-0.59862 2.38194,-1.09225 2.38081,-1.94085 l -4.5e-4,-0.33332 -0.21783,0.35718 c -0.35334,0.57941 -0.99255,1.06366 -1.87309,1.41903 -0.45387,0.18318 -1.47422,0.64592 -2.26744,1.02832 -1.64921,0.79507 -2.33779,0.94083 -3.13704,0.66412 -0.29212,-0.10114 -0.55208,-0.16294 -0.57769,-0.13734 -0.0832,0.0832 0.32563,0.58424 0.60179,0.73761 0.36878,0.20482 1.04694,0.19399 1.69814,-0.0271 z m 20.47827,0.46206 c -0.52357,-0.11521 -0.99238,-0.34817 -1.83803,-0.91335 -0.49655,-0.33186 -1.37622,-0.76722 -2.00257,-0.99108 -1.39578,-0.49887 -1.6686,-0.64149 -2.10492,-1.10043 -0.28823,-0.30317 -0.3587,-0.4938 -0.40156,-1.0863 -0.0571,-0.78931 0.17849,-1.60392 0.565,-1.95372 0.2637,-0.23864 0.46871,-0.0374 0.2412,0.2367 -0.0921,0.11092 -0.12375,0.41826 -0.0878,0.85223 0.052,0.62672 0.0983,0.71677 0.60642,1.17673 0.38649,0.34992 0.89654,0.63079 1.71462,0.94422 0.64046,0.24535 1.61988,0.69232 2.17651,0.99323 0.88704,0.47953 1.1027,0.54744 1.74627,0.54983 0.61531,0.002 0.78405,-0.044 1.04179,-0.28591 0.16916,-0.15875 0.30756,-0.41955 0.30756,-0.57955 0,-0.32099 -0.59306,-0.94383 -1.41435,-1.48539 -0.49257,-0.3248 -0.71061,-0.62129 -0.56442,-0.76748 0.041,-0.041 0.19505,0.0335 0.34214,0.16579 0.14708,0.13229 0.57047,0.43799 0.94088,0.67935 2.1375,1.39277 1.17315,4.10246 -1.26878,3.56513 z m 1.74911,-0.74001 c 0.42443,-0.47502 0.43059,-0.67719 0.0122,-0.40311 -0.22745,0.14903 -0.55674,0.21111 -1.11987,0.21111 -0.71165,0 -0.90483,-0.0563 -1.79118,-0.52167 -0.54641,-0.28691 -1.48155,-0.71942 -2.07807,-0.96112 -1.49297,-0.60497 -2.16597,-1.02347 -2.46819,-1.53481 l -0.25723,-0.43522 -0.0383,0.33466 c -0.0251,0.21863 0.0657,0.4711 0.26174,0.72814 0.29246,0.38344 0.59652,0.53748 2.51507,1.27421 0.39291,0.15088 1.06263,0.5149 1.48829,0.80894 1.51994,1.05 2.81675,1.23614 3.4755,0.49887 z m -53.47264,-0.44071 c -0.68703,-0.57811 -0.39344,-1.5343 0.76177,-2.4809 0.27713,-0.22707 0.80918,-0.8115 1.18236,-1.29872 0.58825,-0.76801 0.69611,-0.99209 0.81087,-1.68469 l 0.13238,-0.79886 -0.36306,-0.28413 c -0.22873,-0.17901 -0.3919,-0.43792 -0.44104,-0.69976 -0.0428,-0.2286 0.0102,-1.93063 0.11671,-3.78229 0.15468,-2.67517 0.23204,-3.40331 0.37662,-3.54523 0.19969,-0.19598 0.20372,-0.41163 -0.0906,4.85054 -0.14912,2.66634 -0.10935,2.85233 0.66,3.084 0.61941,0.18651 1.98854,0.19992 2.37629,0.0233 0.42877,-0.19537 0.50812,-0.61218 0.66502,-3.49295 0.18766,-3.44601 0.27054,-4.29721 0.41151,-4.22672 0.14722,0.0735 0.13807,0.87141 -0.049,4.27299 -0.0806,1.46611 -0.20974,2.85915 -0.28693,3.09563 -0.1071,0.32814 -0.2573,0.48436 -0.63419,0.6596 -0.45612,0.21209 -0.50385,0.27941 -0.62471,0.88121 -0.0895,0.44545 -0.0922,0.69807 -0.009,0.79846 0.067,0.0808 0.15455,0.49655 0.19446,0.92394 0.0625,0.67028 0.0365,0.83537 -0.18963,1.2013 -0.39115,0.63289 -2.05789,2.12994 -2.77577,2.49314 -0.86194,0.43611 -1.71331,0.44 -2.22412,0.0102 z m 2.52566,-2.51031 c 0.18267,-0.0929 0.68244,-0.5014 1.1106,-0.90765 0.76648,-0.72728 0.78117,-0.75305 0.95458,-1.67444 0.0969,-0.51468 0.15966,-0.94946 0.13955,-0.96615 -0.0202,-0.0166 -0.36892,-0.059 -0.77516,-0.0942 l -0.73862,-0.0639 -0.0747,0.55376 c -0.12434,0.92178 -0.2738,1.26005 -0.95261,2.15604 -0.35784,0.47234 -0.65062,0.92567 -0.65062,1.00739 0,0.35059 0.28273,0.34747 0.98698,-0.0113 z m 12.18548,2.57935 c -1.41982,-0.70872 -3.17341,-2.54884 -3.1698,-3.32622 7.8e-4,-0.16726 0.081,-0.5988 0.17831,-0.95895 0.2543,-0.9415 0.0692,-1.83646 -0.41483,-2.00519 -0.56454,-0.19679 -0.81028,-0.53665 -0.889,-1.22949 -0.0397,-0.34917 -0.15047,-2.02597 -0.24622,-3.72622 -0.15923,-2.8275 -0.13136,-3.56641 0.11925,-3.16092 0.0471,0.0761 0.15941,1.54074 0.24975,3.25482 0.20808,3.94714 0.22404,4.06178 0.60748,4.36338 0.60089,0.47268 2.72601,0.25156 3.10232,-0.32278 0.17748,-0.27086 0.17671,-0.5744 -0.0101,-3.87518 -0.1829,-3.23594 -0.16441,-4.08369 0.0805,-3.68752 0.10789,0.17459 0.46428,6.58399 0.39884,7.173 -0.0459,0.41304 -0.14427,0.60525 -0.43329,0.84652 -0.37325,0.31161 -0.3737,0.31338 -0.25777,1.03321 0.16111,1.00043 0.33947,1.29165 1.60245,2.61663 0.60841,0.63828 1.19632,1.29298 1.30644,1.45489 0.20402,0.29993 0.26744,1.03237 0.10913,1.26034 -0.38593,0.55576 -1.51881,0.69639 -2.33361,0.28968 z m 0.48815,-2.39622 c 0.1578,-0.1578 0.003,-0.44274 -0.72323,-1.32938 -0.48652,-0.59416 -0.77765,-1.23961 -0.7894,-1.75021 -0.0168,-0.73523 -0.0843,-0.79637 -0.81576,-0.73978 -0.37187,0.0288 -0.71024,0.0864 -0.75196,0.12816 -0.0418,0.0418 -0.007,0.47768 0.0784,0.96881 0.15302,0.88574 0.16087,0.89915 0.96881,1.65465 0.448,0.41892 1.02886,0.85977 1.2908,0.97965 0.56736,0.25967 0.57039,0.26003 0.74232,0.0881 z m 17.65373,-1.06789 c -0.39794,-0.26118 -0.61893,-0.3326 -0.86319,-0.27895 -0.24228,0.0532 -0.32833,0.0262 -0.32833,-0.10305 0,-0.24038 0.50747,-0.34753 0.91395,-0.193 0.4742,0.1803 1.12758,0.70088 1.04579,0.83323 -0.0981,0.15866 -0.16963,0.1346 -0.76822,-0.25826 z m 16.26097,0.26641 c -0.0847,-0.13713 0.23441,-0.41079 0.85091,-0.72954 0.3716,-0.19212 0.58221,-0.23414 0.80368,-0.16032 0.40357,0.13453 0.32816,0.33816 -0.12522,0.33816 -0.20119,0 -0.58848,0.14734 -0.86066,0.32742 -0.54757,0.36231 -0.57724,0.37227 -0.66871,0.22428 z m -0.38133,-0.63437 c -0.20246,-0.3276 1.32492,-1.18777 1.79131,-1.0088 0.30957,0.1188 0.21176,0.31756 -0.1563,0.31756 -0.19786,0 -0.59978,0.17607 -0.94671,0.41472 -0.41498,0.28545 -0.6295,0.37164 -0.6883,0.27652 z m -15.37868,-0.28772 c -0.21512,-0.16952 -0.60356,-0.33673 -0.86321,-0.37156 -0.48619,-0.0652 -0.61456,-0.22288 -0.28455,-0.34952 0.27965,-0.10733 1.06215,0.16339 1.47398,0.50992 0.65177,0.54843 0.34979,0.7439 -0.32622,0.21116 z m 1.80671,-0.25291 c -0.0727,-0.05 -0.21924,-0.26098 -0.32562,-0.46864 -0.39073,-0.76274 -1.37443,-1.11832 -1.93043,-0.69779 -0.2912,0.22027 -0.52877,0.23039 -0.52877,0.0225 0,-0.30349 0.75185,-0.59469 1.35883,-0.52627 0.59237,0.0667 1.00399,0.35373 1.38209,0.96357 l 0.20896,0.33697 0.32409,-0.4249 c 0.27564,-0.36139 0.33343,-0.57465 0.38657,-1.42654 l 0.0625,-1.00162 -0.70065,-0.13552 c -0.38537,-0.0746 -0.8224,-0.16152 -0.97117,-0.19329 -0.31209,-0.0666 -0.33819,-0.0116 -0.44465,0.93713 -0.11058,0.98527 -0.3564,0.83374 -0.3564,-0.21969 v -0.81703 l -0.43664,-0.10474 c -0.24013,-0.0576 -0.53244,-0.2106 -0.64954,-0.33999 -0.20488,-0.2264 -0.19803,-0.38012 0.18142,-4.0684 0.70396,-6.8426 0.98005,-8.67907 1.26237,-8.39675 0.0352,0.0352 -0.0943,1.34426 -0.28755,2.9091 -0.64839,5.2485 -1.01602,9.20963 -0.86847,9.35719 0.13029,0.13029 2.36529,0.57451 3.73416,0.74219 0.66808,0.0818 0.67413,0.0797 0.74173,-0.25212 0.0374,-0.18402 0.25772,-1.99553 0.48943,-4.02554 0.23169,-2.03002 0.50066,-4.17315 0.59768,-4.76249 0.48258,-2.93142 0.65861,-3.5887 0.83677,-3.12442 0.0347,0.0907 -0.0739,0.90801 -0.24169,1.81624 -0.28346,1.53468 -0.58359,3.81947 -1.07899,8.2138 -0.1107,0.98226 -0.27434,1.96424 -0.36358,2.18214 -0.15186,0.3709 -0.19427,0.39392 -0.66364,0.36003 l -0.5014,-0.0362 0.031,0.66794 c 0.0487,1.05099 -0.0811,1.48167 -0.6241,2.07055 -0.2949,0.31982 -0.54501,0.49713 -0.62424,0.44254 z m 11.89639,-0.29943 c -0.52172,-0.57486 -0.61993,-0.85347 -0.6579,-1.86619 l -0.0376,-1.00283 -0.52119,-0.009 c -0.48941,-0.009 -0.53036,-0.0356 -0.67149,-0.44171 -0.0827,-0.23792 -0.31866,-1.95242 -0.52443,-3.81001 -0.38997,-3.52045 -0.73592,-6.01377 -1.02905,-7.41679 -0.11193,-0.53601 -0.13164,-0.86537 -0.0562,-0.94085 0.33804,-0.33804 0.66352,1.62839 1.59903,9.66084 0.1549,1.33014 0.33889,2.47567 0.40884,2.54563 0.1344,0.13438 3.8086,-0.41939 4.22163,-0.63629 0.13755,-0.0723 0.20836,-0.2502 0.20836,-0.52368 0,-0.50953 -0.89627,-8.81259 -1.13578,-10.52207 -0.0956,-0.68261 -0.17391,-1.25857 -0.17391,-1.27993 0,-0.0214 0.0803,-0.0388 0.17859,-0.0388 0.0982,0 0.17901,0.0401 0.1795,0.0894 5e-4,0.0491 0.0535,0.41327 0.11777,0.80922 0.18837,1.16043 1.19102,10.37491 1.19102,10.94561 0,0.5812 -0.19794,0.85681 -0.69294,0.96486 -0.64393,0.14057 -0.63371,0.12406 -0.59446,0.95931 0.0529,1.12462 -0.20767,1.16095 -0.31978,0.0445 -0.0706,-0.70194 -0.11749,-0.83429 -0.28055,-0.79001 -0.10778,0.0293 -0.41018,0.0865 -0.67212,0.12719 -1.13907,0.177 -1.0929,0.14674 -1.06191,0.69591 0.0155,0.27558 0.0346,0.74215 0.0423,1.03683 0.0102,0.39845 0.0995,0.6388 0.34739,0.93772 l 0.33339,0.40193 0.25407,-0.43062 c 0.50665,-0.85872 1.57518,-1.16093 2.37673,-0.67222 0.63229,0.38552 0.43592,0.66727 -0.20836,0.29897 -0.68002,-0.38873 -1.52045,-0.099 -1.90625,0.65729 -0.27681,0.5426 -0.5528,0.60472 -0.91473,0.20591 z m -40.87495,-10.10951 c -3.79857,-0.4513 -6.39255,-0.90094 -6.98331,-1.21046 l -0.3338,-0.1749 0.0318,-1.4112 c 0.0175,-0.77616 0.0859,-1.94698 0.15201,-2.60182 0.15267,-1.51147 1.04946,-6.92861 1.60243,-9.67964 0.97512,-4.85119 2.64416,-10.71284 3.2702,-11.48503 0.31519,-0.38876 0.43334,-0.15752 0.18393,0.35998 -1.7615,3.65506 -4.82884,18.42265 -4.82884,23.24823 v 1.41934 l 0.62507,0.17857 c 2.8114,0.80319 8.03831,1.21278 11.45977,0.89802 2.30652,-0.21218 5.77316,-0.83399 6.06389,-1.08767 0.0608,-0.0532 0.10013,-0.70046 0.0869,-1.43845 -0.0936,-5.28189 -3.03951,-19.49297 -4.79325,-23.12282 -0.27019,-0.55923 -0.27969,-0.66226 -0.0611,-0.66226 0.215,0 0.52605,0.67774 1.12028,2.4408 1.67034,4.9559 3.78985,15.61011 4.05391,20.37794 0.14028,2.53302 0.1368,2.56886 -0.26726,2.76291 -0.67516,0.32423 -3.12327,0.73489 -7.16407,1.20174 -1.24782,0.14417 -2.9382,0.13886 -4.21864,-0.0133 z m -0.0757,-1.31693 c -0.18874,-0.30538 -0.1841,-5.09856 0.008,-8.60583 0.27946,-5.09367 0.75917,-12.0065 0.84952,-12.24192 0.0895,-0.23319 0.28943,-0.26859 0.28943,-0.0512 0,0.0819 -0.15828,2.50628 -0.35174,5.38757 -0.48249,7.18602 -0.6444,11.0602 -0.56342,13.48082 0.0635,1.89521 0.005,2.41302 -0.23213,2.0306 z m 4.34633,0.0797 c -0.009,-0.0622 -0.005,-1.26504 0.009,-2.67296 0.0274,-2.81184 -0.0859,-5.43515 -0.53637,-12.44202 -0.37445,-5.82279 -0.37441,-5.82183 -0.23223,-5.8936 0.17437,-0.0879 0.26499,0.73494 0.53099,4.82203 0.47535,7.30367 0.52803,8.5083 0.53482,12.22751 0.005,2.868 -0.0289,3.80984 -0.14196,3.92311 -0.0819,0.082 -0.15586,0.0981 -0.16446,0.0359 z m -6.49138,-0.97631 c -0.24413,-2.29953 -0.0769,-7.54938 0.38415,-12.05508 0.38615,-3.7742 1.39675,-9.99711 1.72232,-10.60546 0.15572,-0.29097 0.35243,-0.2963 0.35243,-0.009 0,0.1768 0.0878,0.13611 0.44997,-0.20836 0.24749,-0.23543 0.46432,-0.47569 0.48186,-0.53393 0.0175,-0.0583 -0.27226,-0.20856 -0.64399,-0.33405 -0.37171,-0.12549 -1.07039,-0.4529 -1.5526,-0.72757 -0.72935,-0.41542 -0.91948,-0.58947 -1.13087,-1.03516 -0.5663,-1.194 -1.26263,-4.85723 -1.09214,-5.74545 0.0892,-0.46456 -0.14798,-0.70507 -0.60981,-0.61843 -0.40807,0.0765 -1.02211,-0.28986 -1.02211,-0.60992 0,-0.22824 0.0785,-0.21504 0.49801,0.0837 0.35553,0.25316 0.35676,0.2532 0.67323,0.019 0.48465,-0.35857 0.63132,-0.78106 0.79834,-2.29973 0.16574,-1.50703 0.45694,-2.30102 0.8949,-2.44001 0.38683,-0.12278 0.42187,0.0326 0.088,0.39041 -0.39827,0.42679 -0.5404,0.92777 -0.63298,2.23118 -0.0558,0.78572 -0.15695,1.24159 -0.37915,1.70893 l -0.30302,0.63737 0.30373,0.30372 c 0.3663,0.3663 0.93384,0.3887 1.3842,0.0547 0.52048,-0.38607 0.65014,-0.97027 0.67249,-3.03004 0.0164,-1.51541 0.0579,-1.93046 0.21669,-2.1729 0.108,-0.16482 0.27549,-0.29967 0.37221,-0.29967 0.22622,0 0.22259,0.10822 -0.0123,0.36779 -0.22836,0.25232 -0.27754,2.27497 -0.0617,2.5351 0.4789,0.57704 4.2405,0.63182 5.13141,0.0747 0.27831,-0.17401 0.25415,-2.27388 -0.0298,-2.58757 -0.26994,-0.29827 -0.26295,-0.39006 0.0298,-0.39006 0.13098,0 0.23813,-0.0489 0.23813,-0.10856 0,-0.0598 0.33486,-0.34878 0.74413,-0.64233 0.40929,-0.29353 1.14272,-0.99476 1.62987,-1.55826 0.48714,-0.56351 0.92916,-1.02455 0.98226,-1.02455 0.51725,0 -1.26042,2.09003 -2.55741,3.00677 -0.49632,0.35081 -0.66802,0.53988 -0.61301,0.67503 0.042,0.10328 0.11339,0.80688 0.15857,1.56363 0.0709,1.18743 0.12543,1.44972 0.39806,1.91496 0.31357,0.53506 1.09575,1.32999 1.41356,1.4366 0.27257,0.0915 0.22764,4.22908 -0.0553,5.0952 -0.57507,1.7602 -0.63542,1.85558 -1.50792,2.38276 -0.44769,0.27049 -1.16826,0.61561 -1.60126,0.76692 -0.43301,0.1513 -0.79216,0.2948 -0.79814,0.31888 -0.005,0.0241 0.21055,0.26519 0.48116,0.53579 0.38687,0.38688 0.492,0.44412 0.492,0.26788 0,-0.35461 0.23508,-0.26107 0.40928,0.16285 0.35291,0.85883 1.18471,5.87797 1.60321,9.67383 0.41974,3.8071 0.52945,5.65061 0.53848,9.04874 0.009,3.61591 -0.0748,4.70298 -0.36545,4.70298 -0.14924,0 -0.16272,-0.11253 -0.082,-0.68462 0.16654,-1.18043 0.0852,-7.41214 -0.12857,-9.85241 -0.34207,-3.9045 -0.87268,-7.8741 -1.44827,-10.83469 -0.27025,-1.39009 -0.29219,-1.45218 -0.42771,-1.21003 -0.14049,0.25101 -0.67087,0.25608 -0.94388,0.009 -0.198,-0.17919 -0.20548,-0.13142 -0.14458,0.92275 0.0902,1.56209 -0.30262,3.72881 -0.61879,3.41264 -0.0355,-0.0355 0.0235,-0.56764 0.13094,-1.18269 0.14007,-0.80172 0.17405,-1.4384 0.12011,-2.24934 -0.0921,-1.38461 -0.14837,-1.65241 -0.42365,-2.01738 l -0.21576,-0.28602 -0.19877,0.38439 c -0.10935,0.21143 -0.25593,0.86774 -0.32579,1.45848 -0.12051,1.01921 -0.072,1.78997 0.2228,3.54155 0.0519,0.30856 0.0296,0.38942 -0.0963,0.34749 -0.28355,-0.0945 -0.48525,-1.27833 -0.49752,-2.91993 -0.0113,-1.44936 -0.0273,-1.56098 -0.20628,-1.39899 -0.22961,0.2078 -0.78114,0.23334 -0.8996,0.0418 -0.15318,-0.24787 -0.27072,0.17475 -0.63601,2.28692 -1.11816,6.46537 -1.6855,13.5472 -1.43952,17.96899 0.0638,1.14598 0.11694,2.12378 0.11819,2.17289 9e-4,0.0491 -0.0734,0.0894 -0.16617,0.0894 -0.12228,0 -0.19526,-0.2528 -0.2664,-0.92274 z m 3.39906,-22.23907 c 0.34502,-0.39294 0.48465,-0.77464 0.28023,-0.76598 -0.24708,0.0102 -0.97912,0.82908 -0.98148,1.09754 -0.003,0.22453 0.3656,0.0508 0.70125,-0.33156 z m 2.75077,0.22383 c 0,-0.20542 -0.93444,-1.17039 -1.03551,-1.06932 -0.18553,0.18552 0.55489,1.26636 0.86751,1.26636 0.0924,0 0.168,-0.0886 0.168,-0.19704 z m 0.48777,-2.32413 c 1.31564,-0.61536 1.84118,-1.13526 2.13011,-2.10734 0.34713,-1.16785 0.47585,-2.17364 0.47685,-3.72609 l 9e-4,-1.38945 -0.66636,-0.63462 c -0.3665,-0.34904 -0.80466,-0.87572 -0.97368,-1.1704 -0.16904,-0.29469 -0.31685,-0.55037 -0.32847,-0.56819 -0.0116,-0.0178 -0.36374,0.0483 -0.78248,0.14708 -0.94698,0.22322 -3.14599,0.23451 -4.05391,0.0208 l -0.67317,-0.15845 -0.0782,0.62604 c -0.0947,0.75826 -0.48759,1.56372 -0.91418,1.87424 -0.21302,0.15505 -0.51111,0.22905 -0.92273,0.22905 -0.37544,0 -0.60715,0.0517 -0.60573,0.13509 0.0176,1.02832 0.65091,4.27047 0.99142,5.07618 0.2916,0.69003 1.20277,1.37171 2.48607,1.85995 0.63542,0.24178 0.91573,0.27859 1.87801,0.24668 1.00402,-0.0333 1.23271,-0.085 2.03557,-0.4606 z m -2.31339,-0.1776 c -0.0436,-0.0436 -0.0793,-1.94567 -0.0793,-4.22671 0,-3.60716 0.0233,-4.14735 0.17859,-4.14735 0.1554,0 0.1786,0.54901 0.1786,4.22672 0,2.3247 -0.0446,4.22672 -0.0992,4.22672 -0.0545,0 -0.13494,-0.0358 -0.1786,-0.0795 z m -0.96136,-0.26004 c -0.1125,-0.18197 -0.66365,-3.34359 -0.85133,-4.88327 -0.19563,-1.60484 -0.19202,-3.30907 0.007,-3.26227 0.0654,0.0154 0.15408,0.65834 0.19687,1.42875 0.0823,1.47993 0.47126,4.34432 0.76132,5.60508 0.0951,0.41334 0.1729,0.85537 0.1729,0.98227 0,0.23493 -0.17316,0.31312 -0.28668,0.12944 z m 1.83448,-0.0189 c 0,-0.077 0.10913,-0.6755 0.24249,-1.32993 0.37949,-1.8622 0.60649,-3.59468 0.69141,-5.27689 0.0878,-1.73828 0.2951,-2.08732 0.35364,-0.59532 0.0751,1.91191 -0.745,7.16409 -1.1387,7.29333 -0.0819,0.0269 -0.14884,-0.0141 -0.14884,-0.0912 z m -3.86152,-1.06763 c -0.44673,-1.41415 -0.79933,-3.27504 -0.82166,-4.33648 -0.0278,-1.32166 0.21802,-1.34578 0.31906,-0.0313 0.0926,1.20497 0.44761,3.01876 0.83579,4.27041 0.15649,0.5046 0.25537,0.94662 0.21972,0.98227 -0.16748,0.16747 -0.27466,-0.004 -0.55291,-0.88489 z m 5.62213,0.88469 c -0.0358,-0.0357 0.0912,-0.5508 0.28213,-1.14454 0.40045,-1.24523 0.81476,-3.5171 0.81476,-4.46765 0,-0.77251 0.27359,-0.84411 0.33658,-0.0881 0.0755,0.90597 -0.46633,3.82114 -0.95537,5.14025 -0.2182,0.58851 -0.32478,0.71338 -0.4781,0.56006 z m -2.52212,25.47421 c -0.27676,-0.72121 -0.4228,-17.00173 -0.15491,-17.26962 0.0456,-0.0456 0.11487,-0.051 0.15384,-0.0122 0.0389,0.039 0.0854,3.49031 0.10316,7.66961 0.0177,4.17932 0.0743,8.09436 0.12537,8.70009 0.0627,0.74335 0.0527,1.10133 -0.031,1.10133 -0.0682,0 -0.15662,-0.0851 -0.19657,-0.18926 z m -6.77713,-0.006 c -0.1486,-0.1486 -0.0842,-3.8501 0.10317,-5.91994 0.35504,-3.92452 1.17672,-9.29431 2.19711,-14.35835 0.52121,-2.58674 0.78587,-3.57587 0.95676,-3.57587 0.16354,0 0.14445,0.21152 -0.12007,1.33004 -0.12899,0.54542 -0.42014,1.95608 -0.647,3.1348 -1.41659,7.35998 -2.07529,12.38659 -2.17651,16.60922 -0.0602,2.51135 -0.11308,2.98045 -0.31343,2.7801 z m 13.33805,-9e-4 c -0.0338,-0.0548 -0.0662,-1.00122 -0.0721,-2.1031 -0.0235,-4.44657 -1.09679,-12.30812 -2.65222,-19.42781 -0.51564,-2.3602 -0.51579,-2.36131 -0.32258,-2.29895 0.46248,0.14925 2.20661,9.59108 3.01992,16.34832 0.30425,2.52775 0.43878,7.23099 0.2133,7.45648 -0.0686,0.0686 -0.15244,0.0799 -0.18628,0.0251 z m 23.10119,-4.09077 c -1.06188,-0.1213 -2.92399,-0.54916 -4.73091,-1.08703 -1.30908,-0.38968 -1.90529,-0.64008 -2.052,-0.86184 -0.33001,-0.49879 0.21911,-6.32888 0.98808,-10.49065 0.80231,-4.3423 1.35727,-6.60797 1.61855,-6.60797 0.20344,0 0.2099,-0.0637 -0.1306,1.28811 -1.10168,4.3736 -1.95973,9.9109 -2.16281,13.95739 -0.0657,1.30857 -0.0495,1.63023 0.0874,1.74393 0.25132,0.20857 3.17913,1.07121 4.80649,1.41615 1.16734,0.24744 1.8862,0.31517 3.92906,0.3702 3.84285,0.1035 5.90593,-0.18766 9.4522,-1.33409 l 1.32296,-0.42768 -6.1e-4,-1.03583 c -7.8e-4,-1.35639 -0.29141,-4.61528 -0.59994,-6.72708 -0.25211,-1.72574 -1.08322,-5.9057 -1.58546,-7.97396 -0.16503,-0.6796 -0.23635,-1.19221 -0.17145,-1.23232 0.0611,-0.0378 0.13862,-0.0411 0.17224,-0.008 0.17824,0.17824 1.30432,5.31161 1.76463,8.04426 0.51698,3.0692 0.93033,8.08222 0.73166,8.87377 -0.0993,0.39587 -0.3154,0.49225 -2.56341,1.14348 -2.98055,0.86345 -3.64367,0.95943 -6.97501,1.00954 -1.63711,0.0247 -3.39263,-0.002 -3.90113,-0.0608 z m 2.10703,-4.34328 c 0.0784,-3.16063 0.24844,-6.10877 0.37606,-6.51866 0.0356,-0.11461 0.11979,-0.20836 0.18693,-0.20836 0.0757,0 0.10091,0.26027 0.0665,0.6846 -0.0305,0.37654 -0.12355,2.53307 -0.20671,4.79227 -0.12188,3.31133 -0.18525,4.14228 -0.32686,4.28625 -0.15487,0.15746 -0.16623,-0.2017 -0.096,-3.0361 z m 2.23584,2.91704 c -0.061,-0.16371 -0.14781,-1.69068 -0.19306,-3.39328 -0.0453,-1.7026 -0.13474,-3.75443 -0.19888,-4.55963 -0.1129,-1.41744 -0.0773,-1.82578 0.14033,-1.60816 0.13928,0.13926 0.33454,3.01933 0.44644,6.58451 0.0897,2.8596 0.0406,3.60929 -0.19483,2.97656 z m 1.9503,0.0969 c -0.0259,-0.0859 -0.1071,-1.12078 -0.18054,-2.2995 -0.2802,-4.49861 -0.703,-9.081 -0.9853,-10.67888 -0.0545,-0.30902 0.18502,-0.28386 0.34313,0.036 0.22104,0.44721 1.10957,10.40089 1.10957,12.4298 0,0.49978 -0.18905,0.83759 -0.28686,0.51256 z m -8.04751,-0.49427 c 0,-1.8012 0.65805,-7.84974 1.25809,-11.56397 0.32304,-1.9996 0.34636,-2.08797 0.55106,-2.08797 0.14232,0 0.13783,0.0413 -0.31675,2.91702 -0.38585,2.44097 -0.85964,6.5825 -1.04767,9.15817 -0.10193,1.39618 -0.19275,2.02954 -0.2959,2.06374 -0.10429,0.0346 -0.14883,-0.11103 -0.14883,-0.48699 z m 1.78594,0.0763 c 0,-0.81824 0.60167,-8.29615 0.83407,-10.36628 0.22884,-2.03829 0.38615,-2.66562 0.61187,-2.43991 0.0729,0.0729 0.0696,0.30364 -0.009,0.63787 -0.18461,0.78209 -0.77707,7.31188 -1.02787,11.32858 -0.0607,0.97052 -0.11965,1.27992 -0.24429,1.27992 -0.11014,0 -0.16438,-0.1452 -0.16438,-0.44018 z m 8.05655,0.36081 c -0.0437,-0.0436 -0.0797,-0.4321 -0.08,-0.8632 -9e-4,-1.8696 -0.54504,-6.7637 -1.19796,-10.78508 -0.40589,-2.49986 -0.40176,-2.44078 -0.17065,-2.44078 0.0982,0 0.17886,0.0401 0.1792,0.0894 3.2e-4,0.0491 0.15841,1.06746 0.35129,2.26298 0.65276,4.04591 1.19592,8.96159 1.19592,10.82326 0,0.91159 -0.0652,1.1261 -0.27781,0.91353 z m -11.86541,-1.14102 c 9e-4,-0.93838 0.28275,-3.26605 0.94515,-7.82835 0.85085,-5.86025 1.21492,-7.64161 1.50291,-7.35361 0.0396,0.0396 -0.12113,1.13434 -0.35706,2.43283 -0.55101,3.03247 -1.45417,9.39702 -1.62753,11.46921 -0.15081,1.80255 -0.16919,1.90501 -0.34182,1.90501 -0.0689,0 -0.12229,-0.27432 -0.12165,-0.62509 z m 13.88206,0.11906 c -0.0339,-0.2783 -0.0942,-0.93322 -0.13374,-1.45537 -0.13754,-1.81255 -1.77185,-12.71668 -2.02885,-13.53648 -0.0899,-0.2869 0.15171,-0.38515 0.29389,-0.1195 0.39761,0.74292 2.44076,15.13054 2.20323,15.51487 -0.14375,0.23259 -0.2765,0.0725 -0.33453,-0.40352 z m -15.593,0.30435 c -0.23524,-0.23524 0.0394,-2.99529 0.7616,-7.65645 1.10811,-7.15098 1.34369,-8.33576 1.60542,-8.07402 0.0363,0.0363 -0.0404,0.67559 -0.17026,1.42081 -0.36633,2.10206 -1.4179,8.82138 -1.61597,10.32582 -0.0979,0.74299 -0.21345,1.93699 -0.25695,2.65333 -0.0745,1.22618 -0.14371,1.51064 -0.32384,1.33051 z m 17.37899,-0.10643 c -0.0396,-0.10316 -0.072,-0.46488 -0.072,-0.80372 0,-0.33884 -0.0815,-1.31226 -0.18088,-2.16315 -0.27287,-2.33378 -1.71677,-11.68528 -1.91638,-12.41154 -0.0916,-0.33319 0.13554,-0.35822 0.30902,-0.0341 0.13125,0.24524 0.50892,2.46993 1.31456,7.74336 0.58749,3.84548 0.83086,5.87473 0.83086,6.92763 0,0.77109 -0.13705,1.12747 -0.28517,0.74148 z m -9.63017,-9.36973 c -0.29884,-0.77875 -0.17225,-3.17108 0.25651,-4.84781 0.12559,-0.49113 0.20872,-0.91366 0.18474,-0.93894 -0.0239,-0.0253 -0.3694,0.25566 -0.76758,0.62431 -0.71934,0.66597 -1.1432,0.87935 -1.48571,0.74792 -0.50725,-0.19465 0.11702,-1.21436 1.04342,-1.70438 l 0.38506,-0.20367 -1.4348,-0.147 c -2.28723,-0.23434 -3.95552,-0.73234 -4.51105,-1.3466 -0.34503,-0.3815 -0.36189,-1.29006 -0.0758,-4.08649 0.30443,-2.97609 0.47719,-6.84047 0.36062,-8.0661 -0.13418,-1.41075 -1.02147,-3.92753 -2.19884,-6.237 -1.298,-2.54609 -1.42227,-3.01177 -1.3222,-4.95488 0.0923,-1.79106 0.61824,-6.96505 0.72577,-7.13905 0.0421,-0.068 0.21391,-0.12376 0.38186,-0.12376 0.29844,0 0.3041,-0.0153 0.24945,-0.67446 -0.0602,-0.72642 -0.0216,-0.67665 -1.44142,-1.856 -0.64979,-0.53973 -0.8795,-1.10368 -0.68027,-1.67004 0.11448,-0.32547 0.10451,-0.40139 -0.0663,-0.50246 -1.11504,-0.65987 -1.65507,-1.31645 -1.65507,-2.0123 0,-0.9794 0.99133,-1.80539 3.16002,-2.63301 0.61505,-0.23471 1.1348,-0.44327 1.15501,-0.46347 0.0203,-0.0203 -0.0766,-0.29882 -0.21516,-0.61914 -1.35439,-3.13152 -2.1034,-6.68872 -2.21601,-10.52411 -0.0716,-2.43834 0.0593,-3.80321 0.40965,-4.2725 0.58145,-0.77878 2.66477,-1.52216 5.36434,-1.91411 6.77308,-0.98338 15.29806,-0.10821 17.08069,1.75348 0.28842,0.30123 0.35226,0.50947 0.49911,1.6283 0.0926,0.7056 0.1849,1.29661 0.20506,1.31334 0.0202,0.0168 0.39918,0.14952 0.84226,0.29506 1.16443,0.38249 2.12393,1.06635 2.69405,1.92012 1.04046,1.55809 0.72347,3.4259 -0.88262,5.20068 -0.76332,0.84351 -2.37163,1.96192 -3.51495,2.44429 l -0.77886,0.3286 -0.44886,1.09847 c -0.24687,0.60417 -0.47607,1.16021 -0.50932,1.23567 -0.0361,0.0819 0.21865,0.23992 0.63239,0.39222 1.39527,0.51357 1.91246,0.75558 2.54448,1.19064 0.78786,0.54232 1.25235,1.33139 1.125,1.91119 -0.10755,0.48975 -0.66927,1.11972 -1.35581,1.52057 -0.88234,0.51517 -1.3788,1.07442 -1.34121,1.51081 0.0649,0.75411 -0.3784,1.34474 -1.48455,1.97761 -0.64622,0.36973 -1.06077,0.82303 -1.13495,1.24101 -0.0356,0.20063 0.0184,0.22812 0.38944,0.19845 0.32626,-0.0261 0.45117,0.018 0.51486,0.18168 0.10631,0.27316 0.61815,5.24354 0.72733,7.06272 0.10991,1.8315 -0.0418,2.39183 -1.37073,5.05966 -0.62418,1.25307 -1.27947,2.78595 -1.57784,3.69093 l -0.51032,1.54782 0.0102,3.0361 c 0.007,1.96178 0.0823,3.71016 0.21316,4.94109 0.11149,1.04774 0.23366,2.52114 0.2715,3.27422 0.0648,1.28873 0.0534,1.38866 -0.19466,1.69996 -0.53269,0.66869 -2.12966,1.18374 -4.40947,1.4221 l -1.28874,0.13476 0.6087,0.42542 c 0.7661,0.53544 1.10477,1.06324 0.87972,1.37102 -0.25808,0.35294 -0.80729,0.13145 -1.69901,-0.68518 -0.65573,-0.6005 -0.78891,-0.68165 -0.7205,-0.43901 0.37655,1.33548 0.46212,1.76548 0.58047,2.91703 0.14721,1.43233 0.0324,2.80033 -0.24266,2.89071 -0.12609,0.0414 -0.14129,-0.16742 -0.0773,-1.06239 0.047,-0.65759 0.0234,-1.52855 -0.0575,-2.12598 -0.17845,-1.31737 -0.59594,-2.8791 -0.75544,-2.82593 -0.17684,0.059 -0.50488,1.07921 -0.68189,2.12084 -0.15814,0.93054 -0.21589,2.58759 -0.11761,3.37449 0.0571,0.45774 -0.13682,0.73968 -0.27005,0.39248 z m -0.96696,-5.07061 c 0.52797,-0.3887 1.21288,-1.0869 1.06622,-1.0869 -0.30157,0 -1.73298,1.10108 -1.73298,1.33305 0,0.17296 0.19552,0.1008 0.66676,-0.24615 z m 4.69106,0.22743 c 0,-0.16379 -0.45126,-0.57575 -1.06511,-0.97234 -1.01401,-0.65513 -0.84287,-0.26032 0.27213,0.62779 0.58086,0.46266 0.79298,0.55482 0.79298,0.34455 z m -2.55984,-2.0232 c 2.92995,0.16745 5.7753,-0.29924 6.61672,-1.08524 0.30938,-0.28899 0.34844,-0.40456 0.34844,-1.03092 0,-0.38799 -0.11514,-1.79971 -0.25585,-3.13715 -0.18828,-1.78961 -0.25902,-3.26487 -0.26789,-5.58689 l -0.0121,-3.15515 0.5769,-1.75951 c 0.38391,-1.17091 0.91361,-2.41995 1.58339,-3.73376 1.26827,-2.48778 1.4067,-2.99969 1.29942,-4.80514 -0.10001,-1.68286 -0.62426,-6.78927 -0.70536,-6.87037 -0.0324,-0.0324 -0.34643,0.0485 -0.69772,0.17997 -0.35129,0.13143 -0.97244,0.30462 -1.38033,0.38487 -0.4079,0.0802 -0.76361,0.18146 -0.79046,0.22491 -0.0269,0.0434 0.0288,0.79972 0.12375,1.68058 0.1797,1.66766 0.19261,6.66137 0.0172,6.66161 -0.24453,3.3e-4 -0.31379,-0.73743 -0.24867,-2.64908 0.0509,-1.49512 0.0176,-2.54447 -0.12276,-3.85774 -0.10598,-0.99218 -0.15985,-1.88957 -0.1197,-1.99419 0.0401,-0.10462 0.24132,-0.23383 0.44706,-0.28713 0.20574,-0.0534 0.38961,-0.17759 0.40859,-0.27617 0.019,-0.0986 -0.22994,-0.52381 -0.55316,-0.94497 -0.32322,-0.42117 -0.60774,-0.87291 -0.63225,-1.00389 -0.0529,-0.2826 -0.0683,-0.28291 -3.09023,-0.0622 -2.33027,0.17019 -5.05538,0.0533 -7.12613,-0.30546 -1.0784,-0.18687 -1.13364,-0.18598 -1.25016,0.0202 -0.067,0.11859 -0.34274,0.45962 -0.61264,0.75785 -0.47521,0.52509 -0.53363,0.63908 -0.69234,1.35089 -0.0644,0.28933 -0.0289,0.34814 0.27466,0.45397 0.19183,0.0669 0.37474,0.22086 0.40646,0.34218 0.0318,0.12133 -0.0215,0.9886 -0.11815,1.92728 -0.12023,1.1669 -0.15578,2.37854 -0.11239,3.83098 0.0585,1.95923 -0.009,2.69793 -0.24682,2.69761 -0.15954,-2.1e-4 -0.15679,-4.98243 0.004,-6.64029 0.0842,-0.86914 0.12375,-1.62255 0.0881,-1.67424 -0.0356,-0.0517 -0.38093,-0.16326 -0.76719,-0.24793 -0.38626,-0.0847 -0.9978,-0.25564 -1.359,-0.37991 -0.36117,-0.12426 -0.68098,-0.20165 -0.71066,-0.17196 -0.086,0.0859 -0.60433,5.21549 -0.69272,6.85479 -0.10013,1.85703 0.003,2.25198 1.20275,4.63472 1.43075,2.83996 2.13721,4.81929 2.31822,6.4951 0.12894,1.19385 -0.048,5.21328 -0.35877,8.15579 -0.36875,3.4899 -0.33044,3.8054 0.51039,4.2044 1.22071,0.57926 3.31163,0.92447 5.09036,0.8404 0.68759,-0.0325 1.41089,-0.0499 1.60734,-0.0387 z m -0.53577,-10.30469 c -0.18243,-0.21982 0.0293,-0.53579 0.35902,-0.53579 0.26636,0 0.40259,0.3354 0.22376,0.55088 -0.17696,0.21322 -0.39804,0.20751 -0.58278,-0.0151 z m 4.94109,-2.05675 c -0.30821,-0.11877 -0.90687,-0.18739 -1.69665,-0.19448 -0.81812,-0.008 -1.22039,-0.0552 -1.22039,-0.1449 0,-0.28002 1.29422,-0.3683 2.39477,-0.16335 0.8467,0.15768 1.29618,0.34836 1.29618,0.54985 0,0.20046 -0.15611,0.19095 -0.77391,-0.0472 z m -4.94109,-0.20544 c -0.11826,-0.14248 -0.11826,-0.2147 0,-0.35719 0.31193,-0.37585 0.81224,-0.096 0.63836,0.35719 -0.0377,0.0982 -0.1634,0.1786 -0.27934,0.1786 -0.11594,0 -0.2775,-0.0804 -0.35902,-0.1786 z m -1.78929,-2.82773 c -0.61388,-0.40929 -1.17233,-0.83846 -1.24101,-0.95374 -0.0965,-0.16197 -0.0499,-0.35136 0.20506,-0.83344 0.467,-0.88302 0.76385,-1.24445 0.90351,-1.10009 0.0751,0.0775 -0.0475,0.38644 -0.35075,0.88478 -0.25628,0.42116 -0.46596,0.8093 -0.46596,0.86255 0,0.0532 0.53578,0.45354 1.19062,0.88955 0.65485,0.43599 1.19063,0.83812 1.19063,0.89362 0,0.22983 -0.3757,0.0611 -1.4321,-0.64323 z m 2.74178,0.64323 c 0,-0.0554 0.53869,-0.45956 1.19708,-0.89792 1.35442,-0.90178 1.34121,-0.86213 0.63885,-1.91792 -0.26527,-0.39877 -0.35632,-0.63439 -0.27601,-0.71438 0.14494,-0.14437 0.43754,0.20998 0.90813,1.09981 0.25587,0.48381 0.30168,0.67089 0.2041,0.83344 -0.0692,0.11528 -0.62185,0.54445 -1.2281,0.95374 -1.03401,0.69805 -1.44405,0.88071 -1.44405,0.64323 z m -1.33945,-1.74347 c -0.61621,-0.6793 -0.85152,-1.13219 -0.58826,-1.13219 0.053,0 0.35852,0.30366 0.67894,0.6748 l 0.58258,0.6748 0.60353,-0.6748 c 0.33194,-0.37114 0.64257,-0.6748 0.69029,-0.6748 0.25903,0 -0.005,0.50384 -0.60347,1.1518 l -0.679,0.73507 z m -0.36793,-1.8587 c -0.67329,-0.44597 -1.54611,-1.41779 -1.86745,-2.07928 -0.19509,-0.40158 -0.23516,-0.73299 -0.23516,-1.94469 0,-1.11536 0.0352,-1.44898 0.14883,-1.4114 0.10395,0.0343 0.16706,0.4955 0.20926,1.52796 0.0387,0.94725 0.12063,1.58576 0.22791,1.77642 0.2464,0.43796 1.56589,1.78355 1.93816,1.97649 0.52854,0.27394 1.08056,0.1984 1.99765,-0.27335 1.36331,-0.70129 1.84915,-1.20646 2.54923,-2.6506 0.33467,-0.69036 0.66206,-1.23829 0.72755,-1.21762 0.0654,0.0207 0.10395,0.1116 0.0855,0.20214 -0.0185,0.0906 0.0719,0.22101 0.20082,0.29001 0.1429,0.0765 0.24895,0.27642 0.27169,0.51224 l 0.0373,0.38678 0.40715,-0.56554 c 0.22392,-0.31105 0.45163,-0.56554 0.506,-0.56554 0.26338,0 0.0158,0.46343 -0.87368,1.6355 -1.43999,1.89745 -1.57343,2.05542 -1.73611,2.05543 -0.26005,0 -0.16254,-0.24823 0.32742,-0.83343 0.46607,-0.55668 0.60023,-0.80507 0.35198,-0.65163 -0.0684,0.0422 -0.19767,0.0158 -0.28736,-0.0585 -0.12856,-0.10665 -0.2074,-0.0603 -0.37238,0.21898 -0.27106,0.45885 -1.08691,1.07499 -2.13302,1.61088 -1.09461,0.56075 -1.70175,0.57513 -2.48128,0.0589 z m 5.52654,-2.47902 c 0.20038,-0.20036 0.34803,-0.47522 0.34803,-0.64782 0,-0.55358 -0.22738,-0.44739 -0.59302,0.27693 -0.39421,0.78093 -0.30305,0.91894 0.24499,0.37089 z m -9.44934,0.47803 c -1.11784,-1.45132 -1.52141,-2.14683 -1.16932,-2.01515 0.0584,0.0218 0.699,0.81203 1.42361,1.75601 1.17797,1.53456 1.39809,1.91508 1.1079,1.91508 -0.0477,0 -0.6607,-0.74518 -1.36219,-1.65594 z m 1.0402,-1.25727 c -0.34817,-0.83331 -0.12127,-1.8071 0.39761,-1.70641 0.28278,0.0549 0.30249,0.29536 0.0301,0.36659 -0.19182,0.0501 -0.24299,0.16061 -0.24299,0.52445 0,0.2535 0.0835,0.58008 0.18549,0.72573 0.18433,0.26317 0.14644,0.50254 -0.0796,0.50254 -0.0649,0 -0.19573,-0.18581 -0.29063,-0.4129 z m 6.0485,-0.49939 c -0.2319,-0.0936 -0.17583,-0.6127 0.081,-0.75016 0.17351,-0.0928 0.27567,-0.0772 0.41672,0.0638 0.2211,0.2211 0.22299,0.23706 0.0635,0.53487 -0.12186,0.22769 -0.272,0.2682 -0.56135,0.15144 z m 3.06586,-0.50286 c 0,-0.0689 0.13394,-0.53564 0.29765,-1.03715 0.36559,-1.11996 0.38588,-1.98546 0.059,-2.52144 -0.13072,-0.2144 -0.23768,-0.46722 -0.23768,-0.56181 0,-0.32549 0.34461,-0.0425 0.60614,0.49776 0.21895,0.45229 0.24973,0.67127 0.19537,1.38991 -0.0666,0.88124 -0.51743,2.22366 -0.77562,2.30971 -0.0797,0.0266 -0.14495,-0.008 -0.14495,-0.0769 z m -6.40556,-0.39461 c -0.219,-0.21899 -0.17021,-0.54849 0.10283,-0.69463 0.3098,-0.1658 0.5877,0.0341 0.5877,0.42263 0,0.37495 -0.42157,0.541 -0.69057,0.272 z m 5.67856,0.0536 c -0.006,-0.0491 -0.004,-0.23647 0.009,-0.41636 0.012,-0.18112 -0.14181,-0.61263 -0.34456,-0.96699 -0.4036,-0.70541 -0.45457,-1.18081 -0.1936,-1.80539 0.19278,-0.4614 0.5019,-0.5827 0.36955,-0.145 -0.0446,0.14734 -0.11126,0.4949 -0.14827,0.77235 -0.0563,0.42266 -0.0162,0.57143 0.24761,0.91726 0.35548,0.46608 0.49425,0.98556 0.38235,1.4314 -0.0694,0.27664 -0.29219,0.42382 -0.32201,0.21273 z m -8.12332,-0.94257 c -0.12689,-0.12689 -0.0917,-1.51808 0.0558,-2.20672 0.19196,-0.89616 1.21082,-1.89076 1.3705,-1.33787 0.0178,0.0615 -0.13966,0.21913 -0.34974,0.35053 -0.50967,0.31875 -0.78666,1.13931 -0.7935,2.3507 -0.005,0.84858 -0.0734,1.053 -0.28302,0.84336 z m 0.79659,-0.33873 c -0.13492,-0.3516 0.17746,-1.05974 0.72155,-1.63573 0.59062,-0.62524 0.66468,-0.66442 0.66468,-0.35158 0,0.11768 -0.21087,0.41988 -0.46861,0.67154 -0.32185,0.31428 -0.49289,0.60131 -0.54614,0.91651 -0.0865,0.51205 -0.25763,0.69595 -0.37148,0.39926 z m 3.29123,-1.43897 c -0.65958,-0.24545 -1.66687,-0.82479 -1.66687,-0.9587 0,-0.23631 0.11966,-0.20501 1.02487,0.26807 0.7109,0.37155 0.89637,0.42002 1.38745,0.36265 0.31178,-0.0365 0.91347,-0.23164 1.3371,-0.43382 0.85823,-0.40959 0.9301,-0.428 0.9884,-0.25312 0.0224,0.0674 -0.34585,0.31716 -0.81844,0.55516 -0.82856,0.41725 -1.8219,0.62001 -2.25251,0.45976 z m -2.14312,-2.35204 c 0,-0.38616 0.47238,-1.05283 0.89741,-1.2665 0.53051,-0.26669 2.40322,-0.21301 3.42967,0.0983 0.87562,0.26557 2.00098,0.84661 2.07607,1.0719 0.0721,0.21645 -0.32022,0.16206 -0.68023,-0.0943 -0.17958,-0.12787 -0.75042,-0.3771 -1.26854,-0.55384 -0.74817,-0.25523 -1.17611,-0.32363 -2.07937,-0.33241 -1.33283,-0.013 -1.69954,0.1515 -1.99071,0.89275 -0.20451,0.52064 -0.3843,0.60675 -0.3843,0.18406 z m -5.47805,-3.58385 c 0.11013,-0.53074 0.24209,-0.75709 0.72282,-1.24036 0.32342,-0.32513 0.58804,-0.64196 0.58804,-0.70407 0,-0.0621 -0.54918,-0.28697 -1.22039,-0.49968 -1.4254,-0.45171 -2.64402,-1.03889 -3.23744,-1.55991 l -0.42113,-0.36976 -0.11959,0.31454 c -0.17871,0.47008 0.10564,1.02029 0.78672,1.52218 1.09227,0.80491 1.27792,1.07444 1.33272,1.93495 0.0535,0.83902 0.11615,0.9337 0.73598,1.11079 0.66453,0.18986 0.69056,0.17394 0.83227,-0.50868 z m 15.53352,0.38499 c 0.0121,-0.0184 0.0865,-0.25872 0.1656,-0.53408 0.18893,-0.65821 0.59658,-1.12568 1.3597,-1.55926 0.77859,-0.44236 1.13359,-0.8198 1.23149,-1.30933 0.0929,-0.46484 -0.007,-0.47791 -0.76115,-0.10013 -0.81307,0.407 -1.9865,0.77025 -3.87234,1.19871 -0.43374,0.0985 -0.3619,0.36412 0.34525,1.27617 0.28673,0.36982 0.57319,0.80881 0.63658,0.97553 0.10418,0.27411 0.15154,0.29274 0.49412,0.19449 0.20838,-0.0598 0.38872,-0.1237 0.40075,-0.1421 z m -5.35251,-2.23724 c 3.49698,-0.28499 6.85251,-1.12306 7.85813,-1.96262 l 0.23812,-0.19878 -0.23812,0.0805 c -0.63653,0.21497 -2.50091,0.64816 -3.51234,0.81608 -4.80571,0.79788 -10.63799,0.66143 -15.22157,-0.35611 -0.74293,-0.16492 -1.37524,-0.2754 -1.40515,-0.2455 -0.0978,0.0978 1.71055,0.79291 2.84109,1.09209 2.81096,0.74389 6.30119,1.03023 9.43984,0.77442 z m 2.55704,-1.37387 c 3.51698,-0.41488 6.21244,-1.21833 7.57629,-2.2583 0.46697,-0.35609 0.79234,-1.02193 0.69294,-1.41801 -0.0907,-0.36129 -0.92921,-1.15566 -1.55732,-1.47529 -0.58444,-0.29742 -2.55992,-0.996 -2.62696,-0.92896 -0.0806,0.0805 -1.46277,2.36148 -1.46277,2.41387 0,0.026 0.15807,-0.0346 0.35128,-0.13445 0.43527,-0.22509 0.60122,-0.22983 0.60122,-0.0172 0,0.19975 -1.62756,0.91547 -2.85571,1.2558 -2.41969,0.67053 -6.63196,0.86999 -9.3853,0.44442 -1.54665,-0.23907 -4.01421,-0.92387 -4.27743,-1.18709 -0.29767,-0.29768 -0.0689,-0.46508 0.34377,-0.25165 0.19882,0.10283 0.3847,0.16373 0.41306,0.13536 0.0284,-0.0284 -0.16722,-0.3136 -0.43464,-0.63386 -0.26744,-0.32026 -0.67528,-0.91715 -0.90633,-1.32642 -0.23106,-0.40928 -0.45567,-0.74339 -0.49914,-0.74246 -0.27542,0.005 -2.39695,0.87192 -2.95086,1.20461 -0.69729,0.41881 -1.23617,1.06024 -1.23542,1.47048 0.003,1.13198 2.22159,2.33099 5.61704,3.03446 1.10889,0.22974 3.75691,0.55658 5.21721,0.64393 1.51118,0.0904 5.7984,-0.0427 7.37907,-0.22925 z m -1.30688,-2.49666 c 1.61409,-0.26086 2.87273,-0.62645 3.19549,-0.92817 0.35629,-0.33305 1.40074,-2.01878 2.04954,-3.30789 1.01492,-2.01659 1.90513,-4.80456 2.33436,-7.31085 0.21536,-1.25749 0.30682,-5.75973 0.12983,-6.39087 l -0.0893,-0.31869 -0.68453,0.41221 c -1.29467,0.77961 -3.575,1.31675 -6.80111,1.60199 -2.08448,0.18431 -7.44964,0.0803 -9.30202,-0.1803 -2.37665,-0.33438 -4.3882,-0.94229 -5.22176,-1.57809 -0.32665,-0.24914 -0.42071,-0.27488 -0.51298,-0.14035 -0.2061,0.30047 -0.0306,5.12205 0.24435,6.71316 0.5904,3.41657 1.54018,6.30184 2.77407,8.42703 0.55306,0.95257 1.72714,2.2473 2.27156,2.50497 0.46718,0.22111 2.14865,0.54485 3.53425,0.68044 1.40025,0.13704 4.71023,0.0365 6.07833,-0.18459 z m 7.83994,-7.43765 c 4.03882,-2.10396 5.34961,-5.42043 2.98626,-7.55557 -0.48941,-0.44216 -1.63964,-1.04842 -2.28347,-1.20357 l -0.32742,-0.0789 v 1.07524 1.07523 l 0.40887,0.13495 c 0.22488,0.0742 0.60607,0.35321 0.8471,0.62001 0.40297,0.44603 0.43384,0.53083 0.38359,1.05369 -0.0692,0.71984 -0.52791,1.36151 -1.52526,2.13339 l -0.74248,0.57465 -0.39612,1.293 c -0.21787,0.71116 -0.39799,1.3064 -0.40029,1.32277 -0.012,0.0854 0.22064,-0.0133 1.04922,-0.44488 z m 1.24606,-3.96017 c 0.46295,-0.572 0.54321,-1.23629 0.2017,-1.66951 -0.14298,-0.1814 -0.42309,-0.41415 -0.62245,-0.51724 -0.43483,-0.22487 -0.56408,-0.0998 -0.56763,0.54938 -9e-4,0.22919 -0.0815,0.89892 -0.17834,1.48828 -0.0969,0.58936 -0.177,1.14548 -0.17814,1.2358 -0.003,0.20363 0.87341,-0.50422 1.34486,-1.08671 z m -2.02739,-7.01453 c 0.44786,-0.42531 0.45481,-0.44458 0.28154,-0.77966 -0.47882,-0.92593 -3.28988,-1.73296 -7.19188,-2.06471 -1.9394,-0.1649 -7.5298,-0.089 -8.95889,0.12172 -3.06162,0.4513 -4.91045,1.02272 -5.59533,1.72934 l -0.40439,0.41723 0.23642,0.32748 c 0.13003,0.18012 0.60796,0.51501 1.06207,0.74421 0.99512,0.50224 1.4946,0.52588 3.21294,0.15205 1.98155,-0.43108 3.62097,-0.56333 6.90563,-0.55706 3.33327,0.007 5.23359,0.18798 7.18573,0.68682 l 1.02958,0.26309 0.88868,-0.30222 c 0.59334,-0.20178 1.04131,-0.44714 1.3479,-0.73829 z m -39.13872,45.00134 c 0.11804,-0.37192 0.86368,-1.56775 2.16376,-3.47013 1.6117,-2.35837 1.71238,-2.61357 1.81014,-4.58865 0.0743,-1.50274 -0.14967,-7.58923 -0.29371,-7.97838 -0.0484,-0.13068 -0.28689,-0.15232 -1.14136,-0.10362 -1.42878,0.0815 -1.46175,0.11708 -1.30549,1.40994 0.38592,3.19319 0.42707,6.77653 0.0778,6.77653 -0.10362,0 -0.14452,-0.56631 -0.15262,-2.11337 -0.005,-1.16235 -0.0915,-2.90476 -0.18968,-3.87206 -0.0982,-0.96728 -0.15032,-1.86687 -0.11575,-1.99906 0.0346,-0.1322 0.21678,-0.31997 0.40491,-0.41726 0.41456,-0.21438 0.45325,-0.64177 0.10913,-1.20609 -0.40962,-0.67177 -0.64318,-0.75111 -1.79118,-0.60842 -1.52056,0.18897 -6.45549,0.18149 -8.48451,-0.0129 l -1.75748,-0.16838 -0.30766,0.28743 c -0.71943,0.6721 -0.84552,1.42634 -0.28677,1.71528 0.46676,0.24136 0.52664,0.54246 0.35922,1.80626 -0.0766,0.57867 -0.16886,2.29783 -0.20489,3.82033 -0.0527,2.22822 -0.0972,2.76822 -0.22813,2.76822 -0.2909,0 -0.276,-2.73376 0.0323,-5.9346 0.1222,-1.26852 0.14691,-1.98653 0.071,-2.06245 -0.064,-0.064 -0.62935,-0.14708 -1.25619,-0.18449 -1.12905,-0.0674 -1.14031,-0.0653 -1.20426,0.217 -0.15857,0.69997 -0.37783,6.46598 -0.29836,7.84547 0.11398,1.97857 0.29686,2.43199 1.83161,4.54119 0.48006,0.65973 0.57521,0.93568 0.32265,0.93568 -0.13437,0 -1.62006,-2.13001 -1.96614,-2.81885 -0.17028,-0.3389 -0.36574,-0.86678 -0.43438,-1.17303 -0.29809,-1.33014 -0.0486,-9.11347 0.31004,-9.67054 0.0948,-0.14734 0.28542,-0.26788 0.4235,-0.26788 0.22496,0 0.24429,-0.0504 0.18594,-0.4855 -0.0788,-0.58806 -0.32553,-0.8795 -1.05928,-1.25159 -0.57091,-0.28953 -0.93091,-0.6754 -0.93116,-0.99809 -7e-5,-0.11137 -0.34895,-0.33871 -0.89942,-0.58619 -0.4946,-0.22238 -1.15088,-0.62793 -1.45838,-0.90122 -0.3075,-0.27328 -0.8604,-0.66737 -1.22866,-0.87573 -0.36825,-0.20835 -0.88732,-0.61506 -1.15346,-0.90378 -1.29702,-1.40711 -0.46316,-2.7798 2.35881,-3.88305 0.55662,-0.21759 1.02844,-0.4072 1.04851,-0.42133 0.02,-0.0141 -0.23034,-0.49103 -0.55646,-1.05976 -0.70615,-1.23155 -1.11667,-2.22575 -1.52221,-3.68652 -0.40228,-1.44898 -0.51432,-4.14086 -0.23823,-5.72365 0.79546,-4.56029 3.50366,-8.19154 7.63823,-10.24161 2.11633,-1.04935 3.40898,-1.383935 5.62836,-1.456839 2.05857,-0.06763 3.23799,0.0854 4.89156,0.634651 5.20558,1.729088 8.77172,5.947438 9.60478,11.361458 0.37793,2.45599 0.11588,4.70067 -0.84143,7.20801 -0.34288,0.898 -0.61272,1.40673 -1.55587,2.93316 -0.0274,0.0442 0.25908,0.16938 0.63647,0.2781 0.9428,0.27166 2.5687,1.04486 3.12706,1.48708 0.72652,0.57541 0.99203,1.09295 0.92399,1.80104 -0.0472,0.49146 -0.13801,0.67808 -0.52043,1.06992 -0.51953,0.53232 -1.105,0.90021 -2.07058,1.30111 -0.36017,0.14954 -0.8315,0.40176 -1.04741,0.56051 -0.21591,0.15873 -0.79188,0.4731 -1.27993,0.6986 -0.48803,0.22549 -0.88736,0.47938 -0.88736,0.56422 0,0.21211 -0.44168,0.59791 -1.01202,0.88401 -0.64297,0.32252 -0.86714,0.59657 -0.95926,1.1727 -0.0746,0.46677 -0.0639,0.48829 0.2776,0.55659 0.24122,0.0482 0.3777,0.16045 0.42516,0.34959 0.1952,0.77773 0.42677,6.54802 0.32685,8.1443 -0.11878,1.8973 -0.2939,2.39998 -1.40573,4.03521 -1.75462,2.58058 -2.34401,3.48778 -2.49186,3.83545 -0.18914,0.44481 -0.58826,0.55608 -0.45175,0.12595 z m 2.61139,-16.5268 c 0.235,0 0.2892,-0.0774 0.3542,-0.50603 0.12099,-0.79779 0.29619,-1.02828 1.16919,-1.53813 0.44962,-0.26258 0.79994,-0.49497 0.7785,-0.51642 -0.0215,-0.0215 -0.57476,0.0878 -1.2296,0.24289 -0.65484,0.155 -1.47191,0.31744 -1.81571,0.36097 -0.66453,0.0841 -0.74355,0.16243 -0.42804,0.42408 0.26825,0.22246 0.51734,0.85005 0.51734,1.30341 0,0.29191 0.0413,0.35793 0.18833,0.3015 0.10361,-0.0397 0.31319,-0.0723 0.46579,-0.0723 z m -14.58443,-0.28992 c 0,-0.43022 0.21408,-0.91915 0.56226,-1.28415 0.34042,-0.35687 0.32142,-0.37605 -0.50274,-0.5073 -0.26193,-0.0418 -1.00077,-0.20662 -1.64187,-0.36646 -0.6411,-0.15983 -1.21707,-0.29061 -1.27992,-0.29061 -0.30981,0 -0.0334,0.27482 0.71714,0.7132 0.91972,0.53714 1.04279,0.6959 1.1509,1.48465 0.0734,0.53536 0.0786,0.54059 0.53416,0.54059 0.40808,0 0.46007,-0.0328 0.46007,-0.28992 z m 10.1203,-1.6158 c 1.98368,-0.13356 3.81086,-0.38461 5.17923,-0.71163 1.05707,-0.25262 3.21791,-1.00403 2.55985,-0.89016 -0.22921,0.0397 -0.97567,0.17548 -1.65883,0.3018 -2.53148,0.46813 -4.66779,0.6282 -8.40196,0.62961 -4.79087,0.002 -8.50444,-0.41437 -11.53509,-1.2927 -0.58167,-0.16859 -1.08428,-0.27983 -1.11688,-0.24721 -0.13856,0.13856 2.03663,1.02604 3.1865,1.30009 3.6042,0.85899 7.77008,1.18067 11.78718,0.9102 z m 3.2147,-1.24514 c 5.57374,-0.63081 9.40594,-2.14288 9.40594,-3.71129 0,-0.23767 -0.10912,-0.60863 -0.24246,-0.8244 -0.42807,-0.69263 -1.93771,-1.54152 -3.67916,-2.06888 l -0.64742,-0.19605 -1.25759,1.27259 c -2.39131,2.41981 -5.01847,3.72222 -8.40134,4.16494 -1.98124,0.25928 -4.62352,-0.0528 -6.52643,-0.77095 -2.22498,-0.83965 -4.36769,-2.357 -5.86988,-4.1567 l -0.47697,-0.57144 -1.03217,0.37349 c -1.79864,0.65081 -2.9419,1.58464 -2.9419,2.40293 0,0.72522 0.9854,1.62243 2.4528,2.23333 2.50433,1.04254 5.83836,1.72094 9.9297,2.02043 2.0373,0.14913 7.33085,0.0533 9.28688,-0.168 z m -3.45282,-1.9579 c 5.26363,-1.18554 9.28873,-5.27998 10.42866,-10.60831 0.29746,-1.39046 0.29752,-4.08589 1.2e-4,-5.47688 -0.35636,-1.66679 -0.83982,-2.848 -1.45212,-3.54797 -0.29929,-0.34212 -0.64661,-0.67686 -0.77183,-0.74388 -0.31006,-0.16595 -0.63271,0.0226 -0.8224,0.48052 -0.13909,0.3358 -0.1125,0.44823 0.33339,1.40786 1.81325,3.90263 1.49397,8.27402 -0.86061,11.78348 -0.58646,0.87409 -1.76013,2.16905 -1.96591,2.16905 -0.26642,0 -0.10294,-0.29278 0.55782,-0.99918 1.32401,-1.41544 2.20781,-3.04539 2.71892,-5.01449 0.43978,-1.69428 0.44174,-3.89226 0.005,-5.57432 -0.26915,-1.03651 -0.81423,-2.46138 -0.9416,-2.46138 -0.0257,0 -0.022,0.55492 0.008,1.23313 0.0608,1.36845 -0.0535,1.89271 -0.53805,2.46866 -0.27184,0.32306 -0.30214,0.45492 -0.28174,1.22582 0.0455,1.72012 -0.45085,3.64371 -1.32462,5.13318 -0.27189,0.46344 -0.91631,1.26081 -1.45165,1.79614 -1.97921,1.97921 -4.52561,2.93358 -7.31057,2.73992 -1.58375,-0.11013 -3.98938,-0.906 -3.67843,-1.21696 0.0515,-0.0515 0.26575,-0.0229 0.47607,0.0638 1.40085,0.57686 2.29269,0.7586 3.77569,0.76936 1.09005,0.008 1.7113,-0.0476 2.32172,-0.20763 2.56129,-0.6713 4.73328,-2.43056 5.8869,-4.76825 0.54401,-1.10237 0.80525,-2.09527 0.91519,-3.47821 0.0869,-1.09376 0.005,-1.59179 -0.26183,-1.59179 -0.32688,0 -0.86594,-0.34836 -1.1837,-0.76495 -0.17115,-0.22442 -0.5436,-1.05914 -0.82762,-1.85496 -0.28403,-0.79581 -0.63837,-1.57675 -0.78744,-1.73541 -0.27791,-0.29583 -0.89398,-0.5244 -1.41659,-0.52558 -0.26411,-5.9e-4 -0.21305,0.0822 0.49526,0.803 0.43435,0.44203 0.95718,1.07157 1.16184,1.399 1.02566,1.6409 1.302,4.09548 0.67007,5.95198 -0.41879,1.23034 -0.9576,2.10049 -1.81719,2.93463 -0.82944,0.8049 -1.47235,1.21678 -2.50754,1.60643 -3.19568,1.20285 -6.75288,0.0257 -8.61625,-2.85116 -0.56447,-0.87152 -0.89794,-1.71736 -0.73951,-1.87578 0.076,-0.0758 0.29621,0.24744 0.63251,0.92826 0.90045,1.82284 2.54939,3.19496 4.42075,3.67857 0.92096,0.23799 2.42988,0.26231 3.32031,0.0536 2.50193,-0.5867 4.54147,-2.62624 5.12817,-5.12818 0.34965,-1.49104 0.0939,-3.41756 -0.63998,-4.82203 -0.42657,-0.81631 -1.96357,-2.44078 -2.30935,-2.44078 -0.12611,0 -0.3701,0.14734 -0.54221,0.32742 -0.32847,0.34371 -0.79612,1.26873 -0.80057,1.58357 -9e-4,0.10148 0.28509,0.48164 0.63673,0.8447 0.83392,0.86096 1.1788,1.72676 1.1788,2.95931 0,1.28053 -0.34887,2.12802 -1.23259,2.99432 -1.04535,1.02472 -2.4069,1.44899 -3.75629,1.17047 -1.31642,-0.27169 -2.34759,-1.02678 -2.95783,-2.16592 -0.18551,-0.34631 -0.35123,-0.64733 -0.36826,-0.66893 -0.017,-0.0216 -0.16388,0.0478 -0.32634,0.15426 -0.19105,0.12518 -0.40565,0.16587 -0.60753,0.1152 -0.66879,-0.16786 -1.05611,-1.09185 -1.28051,-3.05477 -0.0728,-0.63675 -0.1724,-1.13296 -0.22136,-1.1027 -0.0951,0.0589 -0.44942,1.3546 -0.50157,1.83437 -0.0172,0.15858 -0.10676,0.31319 -0.19882,0.34356 -0.27303,0.09 -0.0698,-1.27897 0.34272,-2.30933 0.34678,-0.86607 0.35108,-0.90125 0.16584,-1.36418 -0.18964,-0.47395 -0.65784,-0.94698 -0.93732,-0.94698 -0.20973,0 -0.95592,1.58624 -1.26711,2.6936 -0.33467,1.19087 -0.36293,3.17875 -0.0615,4.31668 0.45102,1.70201 1.16892,3.07022 2.20195,4.19667 0.77303,0.84292 0.72057,1.20385 -0.0643,0.44255 -1.05507,-1.02336 -1.87123,-2.44167 -2.36619,-4.11195 -0.24961,-0.84227 -0.31354,-1.31811 -0.3249,-2.41786 -0.0171,-1.65334 0.21018,-2.72652 0.8801,-4.15608 0.25803,-0.55063 0.44119,-1.02909 0.40704,-1.06325 -0.10968,-0.10968 -0.92935,0.34385 -1.7467,0.96642 -0.75658,0.57628 -0.80449,0.64274 -1.0001,1.3873 -0.26418,1.00557 -0.36448,3.58152 -0.17789,4.56845 0.4779,2.5276 1.63389,4.699 3.38935,6.36652 2.60446,2.47397 6.20815,3.56262 9.74908,2.94514 0.99012,-0.17266 2.34108,-0.59951 3.02278,-0.95506 0.41876,-0.2184 0.51563,-0.22115 0.51563,-0.0146 0,0.22506 -1.48335,0.86697 -2.72155,1.17772 -1.34905,0.33858 -4.1639,0.3655 -5.41789,0.0518 -2.08795,-0.52227 -3.85983,-1.50158 -5.41323,-2.99189 -1.56588,-1.5023 -2.5398,-3.11787 -3.19851,-5.30594 -0.4043,-1.34295 -0.51984,-4.02808 -0.22698,-5.2759 0.2835,-1.20802 0.283,-1.20963 -0.39443,-1.23377 -0.3206,-0.0115 -0.74468,-0.1044 -0.94241,-0.20669 l -0.35949,-0.18589 -0.20614,0.86153 c -0.30227,1.26325 -0.36019,3.80144 -0.11858,5.19701 1.00377,5.79794 5.55508,10.30441 11.37921,11.26709 1.31277,0.21699 3.75662,0.13476 5.11969,-0.17224 z m -1.36182,-9.82247 c 2.37061,-1.08531 2.99715,-4.18685 1.24815,-6.17885 -0.39814,-0.45346 -0.71976,-0.57335 -0.71976,-0.26833 0,0.46115 -0.28601,1.41242 -0.53495,1.77925 -0.22302,0.32863 -0.26497,0.51022 -0.21096,0.91295 0.16131,1.20263 -1.03392,2.03815 -2.1155,1.47884 -0.44023,-0.22765 -0.71047,-0.74223 -0.71047,-1.3528 0,-0.37634 0.0842,-0.56303 0.40997,-0.9084 l 0.40998,-0.43469 -0.0948,-1.12395 c -0.0522,-0.61818 -0.12623,-1.15535 -0.16461,-1.19374 -0.17556,-0.17556 -1.24933,0.41016 -1.87333,1.02187 l -0.67324,0.65997 -0.0836,1.00899 c -0.0459,0.55496 -0.14036,1.23465 -0.2098,1.51042 -0.1107,0.4396 -0.0905,0.5795 0.16457,1.13416 0.37853,0.82342 0.82119,1.33618 1.4939,1.73041 1.17331,0.6876 2.4775,0.76728 3.66443,0.2239 z m -0.88356,-2.8084 c 0.27625,-0.27624 0.34734,-0.44245 0.31827,-0.74413 -0.0355,-0.36957 -0.0656,-0.39171 -0.61776,-0.45512 -0.34804,-0.04 -0.63987,-0.14802 -0.72903,-0.26995 -0.30561,-0.41797 -0.77423,0.0595 -0.77423,0.78879 0,0.95416 1.11005,1.37313 1.80275,0.68041 z m -2.61156,-4.55565 c 0.37112,-0.18008 0.7336,-0.32742 0.80551,-0.32742 0.0913,0 0.0878,-0.0806 -0.012,-0.26788 -0.55156,-1.03546 -1.75859,-0.54364 -2.18434,0.89004 -0.26793,0.90224 -0.22875,0.9725 0.26718,0.47917 0.24686,-0.24557 0.75248,-0.59382 1.1236,-0.77391 z m -5.62056,37.53445 c -0.29081,-0.2908 -0.34124,-1.19062 -0.0667,-1.19062 0.11115,0 0.18441,0.15285 0.20836,0.43443 0.0469,0.55176 0.32315,0.74722 0.74042,0.5239 0.37044,-0.19825 0.50761,-0.62353 0.58628,-1.8178 0.0461,-0.7005 0.13884,-1.06285 0.38986,-1.52408 0.55194,-1.01409 1.71751,-1.67473 2.56653,-1.45473 0.6468,0.1676 0.55318,0.3803 -0.15953,0.36243 -1.44459,-0.0363 -2.47788,1.19837 -2.47994,2.96303 -3.6e-4,0.31479 -0.0558,0.77084 -0.12316,1.01341 -0.2286,0.8231 -1.14754,1.2046 -1.66211,0.69003 z m 6.6675,-1.62586 c -0.28516,-0.11388 -0.71438,-0.54444 -0.71438,-0.71661 0,-0.22505 0.0965,-0.19793 0.49797,0.13981 0.29601,0.24908 0.47708,0.29766 1.10938,0.29766 0.6323,0 0.81337,-0.0486 1.10938,-0.29766 0.19456,-0.16371 0.38619,-0.29764 0.42586,-0.29764 0.17708,0 0.0451,0.34101 -0.2331,0.60238 -0.25585,0.24038 -0.44349,0.29129 -1.16084,0.31505 -0.47063,0.0157 -0.93604,-0.004 -1.03427,-0.043 z m -0.0944,-1.77741 c -0.72175,-0.35967 -1.46395,-1.15545 -1.92358,-2.06247 -0.19475,-0.38431 -0.36024,-0.58866 -0.41066,-0.50708 -0.1063,0.1721 -0.86401,-0.12253 -1.10071,-0.42805 -0.21209,-0.27375 -0.15405,-0.86493 0.10057,-1.02432 0.28882,-0.1808 0.40029,-0.006 0.21615,0.3371 -0.13068,0.24416 -0.12987,0.32616 0.005,0.48847 0.16382,0.19738 0.70326,0.45225 0.78476,0.37075 0.0243,-0.0244 -0.0367,-0.2737 -0.13557,-0.55408 -0.0989,-0.28039 -0.17986,-0.61469 -0.17986,-0.74287 0,-0.44792 0.25238,-0.14339 0.52301,0.63109 0.38014,1.08788 0.87267,1.9521 1.43044,2.50986 0.54446,0.54446 1.23705,0.93206 1.66546,0.93206 1.11321,0 2.35513,-1.29358 3.03669,-3.16301 0.36877,-1.01154 0.6072,-1.35094 0.6072,-0.86436 0,0.16857 -0.0791,0.53076 -0.17582,0.80487 -0.17447,0.49446 -0.17376,0.49773 0.0893,0.4176 0.14582,-0.0445 0.35888,-0.16309 0.47349,-0.26373 0.22401,-0.19671 0.28507,-0.62231 0.0894,-0.62231 -0.0655,0 -0.11907,-0.0803 -0.11907,-0.17858 0,-0.0982 0.0697,-0.1786 0.15479,-0.1786 0.465,0 0.59667,0.79634 0.19765,1.19538 -0.29963,0.29962 -0.76906,0.4869 -0.99918,0.3986 -0.11862,-0.0455 -0.27153,0.12912 -0.48931,0.55893 -0.17423,0.34383 -0.60474,0.91309 -0.95669,1.26504 -1.04471,1.04471 -1.79553,1.22172 -2.88318,0.67971 z m -4.75742,-2.24144 c -0.4869,-0.60891 -0.61896,-0.90373 -0.40481,-0.90373 0.10653,0 1.32754,1.3602 1.32754,1.4789 0,0.0379 -0.0937,0.0664 -0.20836,0.0634 -0.11459,-0.004 -0.43607,-0.29041 -0.71437,-0.63846 z m 3.90404,-1.91003 c -0.31524,-0.37985 0.14988,-0.9769 0.52105,-0.66884 0.22397,0.18588 0.24452,0.50001 0.0456,0.69884 -0.19089,0.19089 -0.39227,0.18023 -0.56675,-0.0301 z m 3.35281,0.0301 c -0.3609,-0.36092 0.13009,-1.00751 0.51958,-0.68425 0.30179,0.25045 0.13045,0.82712 -0.24573,0.82712 -0.072,0 -0.19527,-0.0644 -0.27385,-0.14287 z m -5.18319,-0.41276 c -0.15394,-0.15395 -0.0757,-0.24878 0.26072,-0.31606 0.38305,-0.0766 0.5226,-0.34612 0.73167,-1.41304 0.13689,-0.69849 0.43479,-1.19296 0.85383,-1.41723 0.13214,-0.0707 0.62202,-0.14395 1.08863,-0.16274 0.81238,-0.0328 0.86446,-0.0527 1.22755,-0.47282 0.41928,-0.48504 0.63383,-0.39373 0.35262,0.15006 -0.22377,0.43274 -0.75014,0.65423 -1.60554,0.67563 -0.36693,0.009 -0.77725,0.0761 -0.91185,0.1487 -0.32036,0.17282 -0.59632,0.75462 -0.77071,1.62493 -0.088,0.43892 -0.24575,0.80753 -0.42047,0.98226 -0.27072,0.27073 -0.64345,0.3633 -0.80645,0.20031 z m -0.75416,-0.34641 c -0.0396,-0.10316 -0.044,-0.63682 -0.0102,-1.18581 0.15205,-2.43721 1.98264,-4.39586 4.25083,-4.5482 0.83913,-0.0563 1.67505,0.14834 1.76858,0.4331 0.0441,0.13418 -0.0242,0.14634 -0.34807,0.062 -0.82367,-0.21442 -2.02279,-0.12334 -2.73891,0.20801 -1.68016,0.77746 -2.60509,2.3209 -2.60509,4.34718 0,0.8232 -0.14461,1.13451 -0.31761,0.6837 z m 6.95232,-0.13998 c -0.29125,-0.32183 -0.44347,-0.82235 -0.44347,-1.4583 0,-0.73205 -0.17378,-1.19609 -0.47768,-1.27556 -0.25644,-0.067 -0.30799,-0.21412 -0.11656,-0.33244 0.19145,-0.11833 0.52099,0.0346 0.70382,0.32675 0.0927,0.14807 0.20546,0.68772 0.25058,1.19922 0.0584,0.66127 0.15393,1.02722 0.33082,1.26646 0.33956,0.45929 0.13005,0.69109 -0.24751,0.27387 z m 1.17005,0.0994 c -0.0371,-0.0599 -0.0135,-0.251 0.0526,-0.42447 0.16466,-0.43311 0.15075,-1.7767 -0.0246,-2.36151 -0.16083,-0.53682 -0.90173,-1.3912 -1.2064,-1.3912 -0.24437,0 -0.25956,-0.2216 -0.0215,-0.31298 0.30942,-0.11873 0.96159,0.40334 1.31499,1.05266 0.27333,0.5022 0.35091,0.81598 0.39073,1.58056 0.0661,1.2696 -0.21992,2.31965 -0.5059,1.85694 z"
       id="path60" />
    <path
       id="path61"
       style="fill:#824707;stroke-width:7"
       d="m 264.22035,148.9645 c -0.163,-15.35464 -0.014,-19.13142 0.78526,-19.64892 0.5432,-0.3528 5.48526,-0.4669 10.98314,-0.2548 11.78282,0.455 14.126,1.40538 16.73874,6.78964 3.0553,6.29594 1.03146,14.78134 -4.19488,17.58862 -1.23404,0.6629 -2.37398,1.27632 -2.5331,1.36326 -0.159,0.0868 1.60286,2.61814 3.91546,5.62492 2.31252,3.00678 4.51632,5.8891 4.89712,6.40514 0.5257,0.71266 -0.002,0.9261 -2.18498,0.88822 -2.73202,-0.049 -3.09644,-0.3528 -7.2102,-6.03932 -4.7675,-6.59042 -4.95734,-6.67282 -13.12584,-5.69716 l -3.44478,0.4116 -0.1008,5.82512 -0.1008,5.82506 -2.11084,-0.035 -2.11078,-0.035 z m 19.83596,2.01474 c 3.47166,-1.3804 4.9539,-3.73086 5.0274,-7.97272 0.1324,-7.64994 -3.017,-9.94104 -13.49578,-9.81722 -3.6456,0.042 -6.6549,0.152 -6.68724,0.2422 -0.028,0.0904 -0.014,4.24928 0.049,9.24232 l 0.1042,9.07844 6.25792,0.1084 c 3.6762,0.063 7.28504,-0.3003 8.7477,-0.88152 z m -64.7082,14.35148 c -0.004,-1.37914 -0.0826,-9.91998 -0.1764,-18.97966 -0.0938,-9.05968 0.175,-16.64958 0.5978,-16.8665 0.4228,-0.217 1.49338,-0.4081 2.37888,-0.4242 1.50766,-0.028 1.61966,1.20126 1.7614,19.32062 0.0832,10.6428 0.014,19.41016 -0.1462,19.48304 -0.1638,0.0728 -1.22282,0.0972 -2.3536,0.056 -1.83226,-0.07 -2.05688,-0.3521 -2.06178,-2.58664 z m -32.76658,-15.4147 c -0.0742,-9.89374 -0.056,-18.58486 0.035,-19.31356 0.1148,-0.88432 0.87612,-1.35528 2.28956,-1.41632 2.44244,-0.105 2.20926,-2.10896 2.3233,19.96436 0.035,7.26774 0.2065,13.5884 0.3752,14.04578 0.1728,0.469 4.6741,0.80724 10.3112,0.77566 5.50256,-0.028 10.30064,0.063 10.66234,0.21 0.3612,0.1464 0.5684,0.95424 0.4599,1.79488 -0.2394,1.84904 0.142,1.80026 -14.64534,1.87152 l -11.67858,0.056 z m 43.4875,14.52212 c -0.1638,-9.58754 0.2408,-34.5016 0.5684,-34.99454 0.2058,-0.315 6.22776,-0.4935 13.37602,-0.3997 12.0381,0.1582 13.00782,0.2912 13.14424,1.79886 0.0806,0.89544 0.049,1.7885 -0.07,1.9843 -0.1176,0.196 -5.04588,0.3059 -10.95136,0.2443 -5.90554,-0.063 -10.87862,0.1232 -11.05138,0.4109 -0.399,0.6636 -0.6286,12.45838 -0.2562,13.12654 0.1534,0.2744 4.36162,0.4998 9.35256,0.5005 8.11216,0.002 9.09286,0.1624 9.24826,1.51038 0.096,0.8295 0.035,1.73468 -0.1288,2.0116 -0.1666,0.2772 -4.3547,0.4501 -9.30742,0.3857 -4.95256,-0.063 -9.0848,0.014 -9.18274,0.1784 -0.3822,0.6356 -0.3038,12.19106 0.0846,12.42436 0.2268,0.1366 5.3814,0.2716 11.45474,0.3003 9.14178,0.042 11.12446,0.2863 11.51828,1.4105 0.2618,0.74698 0.2772,1.67742 0.035,2.06766 -0.2422,0.3899 -4.75272,0.6461 -10.02232,0.5691 -5.2696,-0.077 -11.42098,-0.1554 -13.66974,-0.1736 l -4.08876,-0.035 z m -77.62594,0 c -0.1638,-9.58754 0.2408,-34.5016 0.5684,-34.99454 0.2058,-0.315 6.22776,-0.4935 13.37602,-0.3997 12.0381,0.1582 13.00782,0.2912 13.14424,1.79886 0.0804,0.89544 0.049,1.7885 -0.07,1.9843 -0.1176,0.196 -5.04588,0.3059 -10.95136,0.2443 -5.90554,-0.063 -10.87862,0.1232 -11.05138,0.4109 -0.399,0.6636 -0.6286,12.45838 -0.2562,13.12654 0.1534,0.2744 4.36162,0.4998 9.35256,0.5005 8.11216,0.002 9.09286,0.1624 9.24826,1.51038 0.096,0.8295 0.035,1.73468 -0.1288,2.0116 -0.1666,0.2772 -4.3547,0.4501 -9.30742,0.3857 -4.95256,-0.063 -9.0848,0.014 -9.18274,0.1784 -0.3822,0.6356 -0.3038,12.19106 0.0846,12.42436 0.2268,0.1366 5.3814,0.2716 11.45474,0.3003 9.14178,0.042 11.12446,0.2863 11.51828,1.4105 0.2618,0.74698 0.2772,1.67742 0.035,2.06766 -0.2422,0.3899 -4.75272,0.6461 -10.02232,0.5691 -5.2696,-0.077 -11.42098,-0.1554 -13.66974,-0.1736 l -4.08876,-0.035 z m -23.8728,-13.6474 c -0.1154,-9.47954 -0.4424,-17.42014 -0.72682,-17.64596 -0.2842,-0.2261 -0.83194,-0.2968 -1.21688,-0.1582 -0.3843,0.1386 -3.05066,0.2198 -5.9236,0.1792 -4.9504,-0.07 -5.2332,-0.1666 -5.40708,-1.86472 -0.2142,-2.09126 -0.5166,-2.05514 19.0918,-2.28068 11.58296,-0.133 11.77736,-0.1036 11.90224,1.83344 0.1232,1.91268 0.021,1.97064 -3.63252,2.02552 -2.06772,0.028 -5.05952,0.1268 -6.64838,0.2128 l -2.88876,0.156 0.1744,17.19354 0.1744,17.19362 -2.34452,0.1954 -2.34444,0.1952 z m -42.35802,-2.43628 c 7.27019,-15.98212 8.98233,-19.21942 10.136909,-19.166 1.154584,0.056 2.858244,3.19766 10.101851,18.60152 4.79198,10.19542 8.77744,18.8503 8.85682,19.23306 0.0792,0.3822 -0.91008,0.6797 -2.19814,0.6608 l -2.34206,-0.035 -2.1159,-4.8501 -2.11574,-4.85022 -10.030531,0.1162 -10.030569,0.1162 -2.092078,4.81558 -2.09224,4.81564 -2.41304,-0.112 -2.41296,-0.112 z m 15.62015,5.84206 2.92634,-0.089 -3.97144,-9.0151 c -2.184277,-4.95838 -4.127561,-9.02236 -4.318301,-9.03118 -0.3171,-0.014 -6.473309,13.5508 -7.635449,16.82632 -0.5082,1.43234 1.68196,1.65284 12.99885,1.30892 z" />
    <path
       id="path62"
       style="fill:#824707;stroke-width:7"
       d="m 589.01012,167.91918 c -4.4044,0.5131 -10.75472,-0.3584 -14.66422,-2.01292 l -2.34046,-0.99036 0.91294,-1.56654 c 0.81432,-1.39726 1.4691,-1.42946 6.0634,-0.2975 2.83276,0.6979 7.15666,1.07416 9.60862,0.8363 3.74004,-0.3626 4.77092,-0.75208 6.40046,-2.41682 2.31594,-2.36586 2.4514,-5.66678 0.3178,-7.74858 -0.79268,-0.77386 -5.42102,-2.49956 -10.28476,-3.83516 -9.0386,-2.48206 -11.68502,-4.12602 -12.91534,-8.02264 -1.49408,-4.7322 2.17574,-10.66582 7.59128,-12.27422 3.80156,-1.1291 13.13278,-0.74206 16.92608,0.70204 l 2.81414,1.07142 -1.07696,1.60306 c -0.9583,1.42654 -1.59936,1.49072 -5.81804,0.581 -10.05432,-2.16734 -17.01302,0.5887 -15.9229,6.30588 0.5565,2.9188 3.0473,4.38088 10.8066,6.34446 8.99254,2.27548 10.6785,3.08986 12.48996,6.03294 4.3967,7.14344 -0.7194,14.50064 -10.9088,15.68764 z m -35.19166,-0.29898 c -4.4044,0.5131 -10.75472,-0.3584 -14.66422,-2.01292 l -2.34046,-0.99036 0.91294,-1.56652 c 0.81432,-1.39728 1.4691,-1.42948 6.0634,-0.2975 2.83276,0.6979 7.15666,1.07414 9.60862,0.83628 3.74004,-0.3626 4.77092,-0.75208 6.40046,-2.41682 2.31594,-2.36586 2.4514,-5.66678 0.3178,-7.74858 -0.79268,-0.77384 -5.42102,-2.49956 -10.28476,-3.83516 -9.0386,-2.48206 -11.68502,-4.126 -12.91534,-8.02262 -1.49408,-4.73222 2.17574,-10.66584 7.59128,-12.27422 3.80156,-1.1291 13.13278,-0.74208 16.92608,0.70202 l 2.81414,1.07142 -1.07696,1.60308 c -0.9583,1.42652 -1.59936,1.49072 -5.81804,0.581 -10.05432,-2.16734 -17.01302,0.5887 -15.9229,6.30588 0.5565,2.91878 3.0473,4.38088 10.8066,6.34444 8.99254,2.2755 10.6785,3.08988 12.48996,6.03296 4.3967,7.14342 -0.7194,14.50064 -10.9088,15.68762 z m 55.74696,-9.2736 c -4.50786,-8.56302 -3.0674,-18.30374 3.63768,-24.60674 3.62754,-3.41194 9.27382,-5.57046 13.82878,-5.28984 8.00996,0.4935 15.99766,6.7996 18.18482,14.35672 1.33958,4.62882 1.04922,11.14526 -0.6713,15.0694 -1.62372,3.70342 -6.30392,8.08268 -10.47298,9.80118 -8.45468,3.48356 -20.09392,-0.94786 -24.50616,-9.33016 z m 9.7995,3.78476 c 7.81242,4.5351 18.02872,0.95264 21.50268,-7.54004 2.11246,-5.1637 0.72946,-12.65936 -3.07616,-16.6752 -5.54798,-5.85144 -15.85422,-6.23238 -21.67858,-0.7982 -2.8147,2.62604 -5.27884,9.25462 -4.78044,12.85892 0.4326,3.12718 2.1721,7.41384 3.69034,9.09364 0.5628,0.6279 2.5193,2.0027 4.34216,3.06088 z m -124.73698,-4.08372 c -4.50786,-8.56304 -3.0674,-18.30374 3.63768,-24.60676 3.62754,-3.41194 9.27382,-5.57046 13.82878,-5.28982 8.00996,0.4935 15.99766,6.79958 18.18482,14.35672 1.33958,4.62882 1.04922,11.14526 -0.6713,15.06938 -1.62372,3.70342 -6.30392,8.0827 -10.47298,9.8012 -8.45468,3.48354 -20.09392,-0.94788 -24.50616,-9.33016 z m 9.7995,3.78476 c 7.81242,4.53508 18.02872,0.95262 21.50268,-7.54006 2.11246,-5.16368 0.72946,-12.65936 -3.07616,-16.67518 -5.54798,-5.85144 -15.85422,-6.23238 -21.67858,-0.79822 -2.8147,2.62606 -5.27884,9.25464 -4.78044,12.85894 0.4326,3.12718 2.1721,7.41384 3.69034,9.09362 0.5628,0.6279 2.5193,2.0027 4.34216,3.0609 z M 455.785,149.24352 c -0.1632,-15.35464 -0.014,-19.13142 0.78526,-19.64892 0.5432,-0.3528 5.48528,-0.4669 10.98314,-0.2548 11.78282,0.455 14.126,1.40538 16.73876,6.78964 3.05528,6.29594 1.03144,14.78134 -4.1949,17.58862 -1.23402,0.6629 -2.37398,1.27632 -2.53308,1.36326 -0.159,0.0868 1.60286,2.61814 3.91544,5.62492 2.31252,3.00678 4.51634,5.8891 4.89714,6.40514 0.5257,0.71266 -0.002,0.9261 -2.18498,0.88822 -2.73204,-0.049 -3.09646,-0.3528 -7.21022,-6.03932 -4.76748,-6.59042 -4.95732,-6.67282 -13.12584,-5.69716 l -3.44476,0.4116 -0.1008,5.82512 -0.1008,5.82506 -2.11086,-0.035 -2.11078,-0.035 z m 19.83598,2.01474 c 3.47164,-1.3804 4.9539,-3.73086 5.0274,-7.97272 0.1324,-7.64994 -3.017,-9.94104 -13.4958,-9.81722 -3.6456,0.042 -6.6549,0.152 -6.68724,0.2422 -0.028,0.0904 -0.014,4.24928 0.049,9.24232 l 0.1044,9.07844 6.25794,0.1084 c 3.67618,0.063 7.28504,-0.3003 8.74768,-0.88152 z" />
    <path
       style="fill:#824707;stroke-width:7.865;stroke-dasharray:none"
       d="m 132.20399,175.98949 484.9943,-0.5116 z"
       id="path64" />
    <rect
       style="fill:#824707;stroke-width:18.0617;stroke-dasharray:none"
       id="rect64"
       width="226.97775"
       height="2.0463893"
       x="75.301598"
       y="175.47789" />
    <rect
       style="display:inline;fill:#824707;stroke-width:16.9703;stroke-dasharray:none"
       id="rect64-6"
       width="200.37469"
       height="2.0463893"
       x="447.12292"
       y="175.47789" />
    <path
       d="m 373.9584,232.57097 c -0.0865,-1.02428 -0.15732,-3.4341 -0.15732,-5.35516 v -3.49282 h 2.19859 c 2.77668,0 3.76255,0.37338 4.28456,1.62272 0.54843,1.31258 0.29421,2.46327 -0.759,3.43565 -0.98378,0.90824 -0.99735,0.83963 0.64745,3.27382 1.32949,1.96758 1.36981,2.13474 0.51485,2.13474 -0.63144,0 -0.86041,-0.23973 -2.03423,-2.12991 -1.29826,-2.09059 -1.34175,-2.13128 -2.3572,-2.20474 l -1.03452,-0.0747 v 2.1787 c 0,1.76214 -0.0736,2.20694 -0.38504,2.32645 -0.70171,0.26926 -0.75944,0.16146 -0.91805,-1.7146 z m 3.94949,-4.00524 c 0.89254,-0.31114 1.24826,-0.85424 1.24826,-1.90573 0,-1.23844 -0.71551,-1.71992 -2.55588,-1.71992 h -1.58222 v 1.18666 c 0,0.65265 0.0685,1.52895 0.15203,1.94732 0.13777,0.68864 0.23805,0.76068 1.05906,0.76068 0.49878,0 1.25419,-0.12098 1.67861,-0.26901 z m -12.91416,5.26831 c -1.43004,-0.14306 -2.68159,-0.34153 -2.7812,-0.44112 -0.20171,-0.20171 0.61854,-9.93202 0.86082,-10.21259 0.23971,-0.27759 5.85989,0.34113 5.85559,0.64464 -0.0115,0.76889 -0.38072,0.86862 -2.44366,0.65888 -1.13068,-0.115 -2.12439,-0.14145 -2.20818,-0.0589 -0.0837,0.0826 -0.20953,0.82637 -0.27952,1.65297 l -0.12719,1.50288 1.86171,0.15709 c 2.34771,0.19826 2.47027,0.24104 2.47027,0.86405 0,0.49581 -0.0718,0.50712 -2.17407,0.34267 l -2.17405,-0.16997 -0.12581,0.82122 c -0.0692,0.45165 -0.17503,1.28025 -0.235,1.84133 l -0.10925,1.02014 1.37455,0.14858 c 2.94023,0.31768 3.2002,0.3876 3.2002,0.86096 0,0.2481 -0.0821,0.49075 -0.18262,0.53924 -0.10028,0.0485 -1.35258,-0.0288 -2.78268,-0.17181 z m 23.44317,-4.4516 c -0.29486,-2.1086 -0.60009,-4.19603 -0.67832,-4.63873 l -0.14214,-0.80491 -1.36997,0.16376 c -0.75348,0.0902 -1.4769,0.17848 -1.60761,0.19642 -0.13064,0.0184 -0.27524,-0.2139 -0.32119,-0.51516 -0.046,-0.30123 -0.0485,-0.55078 -0.007,-0.55455 0.0428,-0.005 1.79404,-0.25767 3.89169,-0.56419 l 3.81391,-0.55736 0.10557,0.55276 c 0.1127,0.58901 0.0702,0.60738 -2.18572,0.94746 -0.95031,0.14329 -1.01591,0.20148 -0.90592,0.80413 0.38904,2.13132 1.2199,8.58157 1.11844,8.683 -0.0667,0.0667 -0.35868,0.12121 -0.64901,0.12121 -0.49655,0 -0.55973,-0.2277 -1.06398,-3.8338 z m -37.51491,2.17136 c -1.08461,-0.41557 -1.399,-0.85779 -1.0232,-1.43918 0.15042,-0.23285 0.40944,-0.1932 1.12654,0.17227 2.01034,1.02493 3.81004,0.86871 4.28161,-0.37166 0.35257,-0.92731 -0.0662,-1.61211 -1.67732,-2.74217 -1.83775,-1.28911 -2.22295,-1.82742 -2.22295,-3.10636 0,-2.5139 2.48363,-3.40529 5.53773,-1.98752 1.16037,0.53868 1.13997,0.50777 0.74874,1.13422 -0.27885,0.4465 -0.3081,0.44588 -1.21343,-0.026 -1.21477,-0.63319 -2.64042,-0.81047 -3.18327,-0.39588 -0.55067,0.42049 -0.76618,1.67532 -0.3714,2.16223 0.16905,0.20838 0.93656,0.84132 1.70575,1.4065 1.84903,1.35856 2.23067,1.96579 2.05574,3.2706 -0.0987,0.73607 -0.35151,1.22013 -0.88716,1.69878 -0.65246,0.583 -0.94502,0.66769 -2.26665,0.65617 -0.83465,-0.007 -2.00946,-0.20171 -2.61073,-0.43213 z m 47.82314,-0.36135 c -0.57157,-1.64133 -2.52542,-9.7751 -2.37825,-9.90045 0.34229,-0.29159 5.19803,-1.4835 5.4384,-1.33494 0.12765,0.0789 0.23205,0.33858 0.23205,0.57714 0,0.32547 -0.32387,0.50621 -1.29743,0.72409 -0.7136,0.15962 -1.68427,0.39716 -2.15706,0.52771 l -0.8596,0.23733 0.37805,1.58008 c 0.20792,0.86906 0.487,1.58008 0.62017,1.58008 0.13317,0 1.05805,-0.22885 2.05531,-0.50878 1.48736,-0.41736 1.85035,-0.45016 2.01976,-0.18262 0.37663,0.59489 0.0734,0.80847 -1.87298,1.31948 -1.06092,0.27853 -1.9285,0.60713 -1.92797,0.73025 0.002,0.49227 0.68685,3.28679 0.8265,3.37314 0.0821,0.0508 1.10269,-0.16215 2.26783,-0.47339 2.09806,-0.56023 2.11991,-0.56102 2.27223,-0.0812 0.0846,0.26652 0.10856,0.52983 0.0531,0.58514 -0.0554,0.0552 -1.33112,0.42343 -2.83514,0.81802 -1.96489,0.5155 -2.76287,0.6362 -2.83509,0.42877 z m -57.56196,-2.32908 c -1.43601,-0.46869 -2.67759,-1.26769 -2.67759,-1.72313 0,-0.76781 0.41296,-0.79546 1.46664,-0.0982 0.66583,0.44063 1.42556,0.69522 2.28797,0.76675 1.14124,0.0945 1.33738,0.0412 1.68928,-0.46134 0.6532,-0.93258 0.47881,-1.3739 -1.27505,-3.2269 -0.92025,-0.97225 -1.74745,-2.00176 -1.83823,-2.28778 -0.25107,-0.79102 0.28985,-2.44265 0.93934,-2.86822 0.97785,-0.64071 2.0956,-0.67999 3.57347,-0.12558 1.75973,0.66017 2.2934,1.20474 1.81792,1.85502 -0.32189,0.4402 -0.36706,0.44321 -0.79808,0.0531 -0.57403,-0.51948 -2.09139,-1.16226 -2.74369,-1.16226 -0.69177,0 -1.46832,0.85176 -1.46832,1.61053 0,0.46777 0.45243,1.07865 1.70393,2.30071 1.61425,1.57629 1.70391,1.7219 1.70391,2.76711 0,1.61626 -0.935,2.60438 -2.57032,2.71637 -0.66146,0.0453 -1.47649,-0.007 -1.81118,-0.11615 z m 68.69851,-2.04472 c -0.27133,-0.69851 -1.14898,-2.93464 -1.95033,-4.96917 l -1.45698,-3.69914 2.05399,-0.74322 c 2.53417,-0.91696 3.45723,-0.94337 4.42778,-0.12673 1.34785,1.13415 1.51885,3.01558 0.38771,4.26546 -0.34058,0.37635 -0.18722,0.54759 1.84964,2.06409 l 2.22102,1.65373 -0.69037,0.29122 c -0.37971,0.16008 -0.7999,0.21505 -0.93378,0.12167 -0.13386,-0.0932 -1.04468,-0.80037 -2.024,-1.5714 -1.72693,-1.35965 -1.80393,-1.3927 -2.55587,-1.09648 -0.42642,0.1679 -0.86287,0.3809 -0.96989,0.47318 -0.10695,0.0922 0.14375,1.01966 0.5574,2.06087 0.41361,1.04121 0.72027,1.91914 0.68145,1.95099 -0.0389,0.0317 -0.30321,0.17871 -0.58751,0.3264 -0.47534,0.24688 -0.55663,0.16629 -1.01026,-1.00156 z m 2.43998,-5.70667 c 0.58498,-0.5293 0.53629,-1.80803 -0.0996,-2.61648 -0.44355,-0.56387 -0.66208,-0.6497 -1.39964,-0.54974 -0.48072,0.0651 -1.28018,0.28878 -1.77657,0.49696 l -0.90256,0.37853 0.5621,1.41634 c 0.30916,0.77901 0.62891,1.60598 0.71058,1.83772 0.13869,0.39342 0.22586,0.38822 1.31413,-0.0782 0.6411,-0.2748 1.35732,-0.67307 1.5916,-0.88508 z m -81.88285,3.25968 -2.58991,-1.25721 2.16678,-4.60747 c 1.19172,-2.53412 2.22001,-4.66074 2.2851,-4.72581 0.1978,-0.1978 5.23141,2.20082 5.22741,2.49083 -0.0115,0.88074 -0.4188,0.86344 -2.41686,-0.10281 -1.11506,-0.53923 -2.06354,-0.94429 -2.10772,-0.9001 -0.16698,0.16698 -1.3311,2.91902 -1.26314,2.98618 0.0391,0.0386 0.92584,0.45963 1.97048,0.93543 1.7429,0.7938 1.87751,0.90581 1.6345,1.35988 -0.14559,0.27215 -0.31848,0.49484 -0.38403,0.49484 -0.0655,0 -0.88054,-0.38339 -1.811,-0.85197 -0.93047,-0.46857 -1.78772,-0.85196 -1.90502,-0.85196 -0.1173,0 -0.54637,0.75421 -0.95351,1.67601 l -0.74028,1.67601 2.03308,0.94072 c 1.11819,0.51739 2.03746,1.00193 2.04282,1.07677 0.005,0.0747 -0.12719,0.31195 -0.29452,0.52693 -0.27259,0.35022 -0.57396,0.26001 -2.89418,-0.86627 z m 90.91419,-1.50653 c -0.0863,-0.22448 0.0416,-0.52384 0.30968,-0.72456 0.43481,-0.32568 0.3639,-0.52146 -1.49082,-4.11664 -1.86551,-3.61606 -1.97692,-3.77253 -2.65109,-3.72358 -1.2231,0.0888 -0.92555,-0.40545 0.807,-1.34056 1.40132,-0.75633 1.70027,-0.84269 1.82169,-0.52631 0.0842,0.21942 -0.0573,0.54851 -0.33663,0.78313 -0.47304,0.39717 -0.44569,0.47316 1.48953,4.1412 1.91518,3.63009 1.99074,3.73276 2.65003,3.6009 0.46601,-0.0932 0.72135,-0.0244 0.81499,0.21965 0.0966,0.25174 -0.35968,0.60508 -1.56561,1.21238 -1.44348,0.72693 -1.72424,0.79899 -1.84877,0.47449 z m 5.65701,-8.51591 c -1.55197,-2.35474 -2.82177,-4.3728 -2.82177,-4.48461 0,-0.11178 1.05252,-0.87671 2.33896,-1.69983 1.84922,-1.18322 2.40987,-1.43773 2.67759,-1.21553 0.606,0.50294 0.63797,0.47311 -3.15243,2.94198 -0.3677,0.23952 1.47702,2.94524 1.85649,2.72301 0.16261,-0.0952 0.91959,-0.59227 1.68204,-1.10448 0.76247,-0.51219 1.49012,-0.93127 1.61704,-0.93127 0.18584,0 0.52622,0.54091 0.52622,0.83616 0,0.0363 -0.76676,0.57595 -1.70391,1.19911 -0.93716,0.62316 -1.70391,1.19294 -1.70391,1.26615 0,0.0731 0.44689,0.79122 0.99309,1.59553 0.94293,1.38853 1.01978,1.44498 1.52136,1.11711 2.86141,-1.8704 3.26982,-2.07973 3.53671,-1.81286 0.50538,0.50538 0.29341,0.78872 -1.3654,1.82517 -0.90369,0.56462 -1.98894,1.2514 -2.41168,1.52616 l -0.76862,0.49956 z m -107.90134,3.77336 c -0.82669,-0.33306 -3.72768,-2.21104 -3.72768,-2.41314 0,-0.14996 5.21808,-8.46742 5.49,-8.75104 0.0478,-0.0497 0.9968,0.51495 2.10901,1.255 2.4305,1.6172 3.22285,2.7781 3.19689,4.68386 -0.0258,1.89103 -1.2165,3.89282 -2.90624,4.88582 -1.04804,0.61589 -3.06718,0.78059 -4.16198,0.3395 z m 3.37439,-1.40475 c 2.03475,-1.34193 2.95941,-4.10915 1.9346,-5.7897 -0.44951,-0.73715 -2.85423,-2.47514 -3.09352,-2.23585 -0.28893,0.28893 -4.23924,6.62239 -4.23924,6.79669 0,0.10534 0.57506,0.52122 1.27794,0.92432 1.50117,0.86091 3.09769,0.97893 4.12022,0.30454 z"
       style="fill:#824707;stroke-width:2.3"
       id="path1" />
  </g>
</svg>
